<?xml version="1.0" encoding="UTF-8"?>
<svg id="Ebene_1" data-name="Ebene 1" xmlns="http://www.w3.org/2000/svg" viewBox="0 0 8131 8291">
  <defs>
    <style>
      .cls-1 {
        fill: #3345a6;
      }
    </style>
  </defs>
  <g>
    <path class="cls-1" d="M4239.58,3623.72c64.09,0,116.05-51.96,116.05-116.05v-348.15c0-64.09-51.96-116.05-116.05-116.05s-116.05,51.96-116.05,116.05v348.15c0,64.09,51.96,116.05,116.05,116.05ZM4152.54,3159.51c0-48.07,38.97-87.04,87.04-87.04s87.04,38.97,87.04,87.04v348.15c0,48.07-38.97,87.04-87.04,87.04s-87.04-38.97-87.04-87.04v-348.15Z"/>
    <path class="cls-1" d="M6038.37,5653.72h-31.08c-10.38-14.59-24.41-33.73-44.78-50.93-32.45-27.42-71.89-41.91-114.04-41.91s-81.59,14.49-114.04,41.91c-6.57,5.55-12.49,11.31-17.83,17.05-5.35-5.74-11.26-11.49-17.83-17.05-18.24-15.41-38.69-26.74-60.58-33.7-13.29-5.3-27.77-8.21-42.95-8.21h-10.52c-15.17,0-29.67,2.91-42.96,8.21-21.89,6.97-42.34,18.29-60.57,33.7-6.57,5.55-12.49,11.31-17.83,17.04-5.34-5.74-11.25-11.49-17.82-17.04-32.45-27.42-71.89-41.91-114.04-41.91s-81.59,14.49-114.04,41.9c-14.17,11.97-25.26,24.87-34.21,36.52-27.24-18.77-69.25-43.61-131.32-43.61h-58.02c-64.09,0-116.05,51.96-116.05,116.05s51.96,116.05,116.05,116.05h53.71c3.07,1.98,7.5,5.12,10.99,7.59,26.57,18.86,71.05,50.43,141.01,50.43,42.16,0,81.59-14.49,114.04-41.9,6.58-5.55,12.49-11.31,17.83-17.05,5.35,5.74,11.26,11.49,17.83,17.05,32.45,27.42,71.89,41.91,114.04,41.91s81.59-14.49,114.04-41.91c4.49-3.79,8.67-7.68,12.57-11.59,3.9,3.91,8.08,7.79,12.57,11.59,32.45,27.42,71.89,41.91,114.04,41.91s81.59-14.49,114.04-41.91c6.57-5.55,12.49-11.31,17.83-17.05,5.34,5.74,11.26,11.49,17.83,17.05,32.45,27.42,71.89,41.91,114.04,41.91h58.03c64.09,0,116.05-51.96,116.05-116.05s-51.96-116.05-116.05-116.05ZM6038.37,5856.81h-58.03c-71.98,0-110.21-46.12-131.87-76.03-21.66,29.91-59.9,76.03-131.87,76.03-66.48,0-104.18-39.35-126.61-68.92-22.44,29.58-60.13,68.92-126.61,68.92-71.98,0-110.21-46.12-131.87-76.03-21.66,29.91-59.9,76.03-131.87,76.03-60.72,0-98.93-27.13-124.22-45.07-17.47-12.4-19.41-12.95-23.47-12.95h-58.02c-48.07,0-87.04-38.97-87.04-87.04s38.97-87.04,87.04-87.04h58.02c60.72,0,98.93,27.13,124.22,45.07,6.47,4.6,10.82,7.57,13.93,9.48,1.6-2.2,3.18-4.42,4.52-6.31,20.61-29.03,58.99-83.06,136.9-83.06,71.98,0,110.21,46.12,131.87,76.03,17.09-23.59,44.47-57.26,90.6-70.44,9.56-3.61,19.93-5.59,30.75-5.59h10.52c10.82,0,21.19,1.98,30.75,5.59,46.13,13.18,73.52,46.85,90.6,70.45,21.66-29.91,59.9-76.04,131.87-76.04,77.91,0,116.29,54.03,136.9,83.06,2.07,2.91,4.69,6.61,7.07,9.78h45.93c48.07,0,87.04,38.97,87.04,87.04s-38.97,87.04-87.04,87.04Z"/>
    <path class="cls-1" d="M5197,4754.32h-174.08v174.08h174.08v-174.08ZM5167.99,4899.38h-116.05v-116.05h116.05v116.05Z"/>
    <path class="cls-1" d="M6735.49,5596.31c20.54,15.29,44.91,22.97,69.31,22.97s46.42-6.94,66.39-20.87l150.5-104.98c10.23-7.13,19.24-15.87,26.69-25.87,27.77-37.3,39.36-83.18,32.62-129.18-6.73-46.01-30.99-86.64-68.28-114.41-37.3-27.77-83.16-39.35-129.18-32.61-46.01,6.74-86.63,30.99-114.4,68.28-7.45,10.01-13.23,21.14-17.14,32.99l-57.41,174.28c-15.63,47.44.85,99.57,40.92,129.4ZM6722.12,5475.99l57.42-174.28c2.92-8.88,7.27-17.24,12.85-24.74,23.14-31.08,57-51.29,95.34-56.9,38.35-5.62,76.57,4.03,107.65,27.17,31.08,23.14,51.29,57,56.9,95.34,5.61,38.34-4.04,76.57-27.18,107.65-5.59,7.5-12.35,14.06-20.02,19.41l-150.5,104.98c-14.97,10.44-32.39,15.65-49.79,15.65-18.3,0-36.58-5.76-51.98-17.22-30.05-22.37-42.41-61.46-30.69-97.05Z"/>
    <path class="cls-1" d="M4239.58,5247.54c64.09,0,116.05-51.96,116.05-116.05v-348.15c0-64.09-51.96-116.05-116.05-116.05s-116.05,51.96-116.05,116.05v348.15c0,64.09,51.96,116.05,116.05,116.05ZM4152.54,4783.33c0-48.07,38.97-87.04,87.04-87.04s87.04,38.97,87.04,87.04v348.15c0,48.07-38.97,87.04-87.04,87.04s-87.04-38.97-87.04-87.04v-348.15Z"/>
    <path class="cls-1" d="M3891.42,3043.14c-64.09,0-116.05,51.96-116.05,116.05v348.11c0,64.09,51.96,116.05,116.05,116.05s116.05-51.96,116.05-116.05v-348.11c0-64.09-51.96-116.05-116.05-116.05ZM3978.46,3507.3c0,48.07-38.97,87.04-87.04,87.04s-87.04-38.97-87.04-87.04v-348.11c0-48.07,38.97-87.04,87.04-87.04s87.04,38.97,87.04,87.04v348.11Z"/>
    <path class="cls-1" d="M4993.91,2695.31h58.02c62.06,0,104.07-24.84,131.32-43.61,8.94,11.66,20.04,24.56,34.21,36.52,32.45,27.42,71.89,41.9,114.04,41.9s81.59-14.49,114.04-41.91c6.57-5.55,12.49-11.3,17.82-17.04,5.34,5.74,11.26,11.49,17.83,17.04,18.24,15.41,38.68,26.73,60.57,33.7,13.28,5.3,27.78,8.21,42.96,8.21h10.52c15.17,0,29.66-2.91,42.95-8.21,21.89-6.97,42.34-18.29,60.58-33.7,6.57-5.55,12.49-11.31,17.83-17.05,5.34,5.74,11.25,11.49,17.83,17.05,32.45,27.42,71.89,41.91,114.04,41.91s81.59-14.49,114.04-41.91c20.37-17.21,34.4-36.34,44.78-50.93h31.08c64.09,0,116.05-51.96,116.05-116.05s-51.96-116.05-116.05-116.05h-58.03c-42.16,0-81.59,14.49-114.04,41.91-6.57,5.55-12.49,11.31-17.83,17.05-5.34-5.74-11.26-11.49-17.83-17.05-32.45-27.42-71.89-41.91-114.04-41.91s-81.59,14.49-114.04,41.91c-4.49,3.79-8.67,7.68-12.57,11.59-3.9-3.91-8.08-7.79-12.57-11.59-32.45-27.42-71.89-41.91-114.04-41.91s-81.59,14.49-114.04,41.91c-6.57,5.55-12.49,11.31-17.83,17.05-5.34-5.74-11.25-11.49-17.83-17.05-32.45-27.41-71.89-41.9-114.04-41.9-69.97,0-114.44,31.57-141.01,50.43-3.49,2.47-7.91,5.61-10.99,7.6h-53.71c-64.09,0-116.05,51.96-116.05,116.05s51.96,116.05,116.05,116.05ZM4993.91,2492.22h58.02c4.05,0,6-.55,23.47-12.95,25.29-17.95,63.5-45.08,124.22-45.08,71.98,0,110.22,46.12,131.87,76.04,21.66-29.91,59.9-76.04,131.87-76.04,66.48,0,104.17,39.35,126.61,68.92,22.43-29.58,60.13-68.92,126.61-68.92,71.98,0,110.21,46.12,131.87,76.04,21.66-29.91,59.9-76.04,131.87-76.04h58.03c48.07,0,87.04,38.97,87.04,87.04s-38.97,87.04-87.04,87.04h-45.93c-2.38,3.17-5.01,6.87-7.07,9.78-20.61,29.03-58.99,83.06-136.9,83.06-71.98,0-110.21-46.12-131.87-76.03-17.08,23.59-44.47,57.27-90.6,70.44-9.56,3.61-19.93,5.59-30.75,5.59h-10.52c-10.82,0-21.19-1.98-30.75-5.59-46.13-13.17-73.52-46.85-90.6-70.44-21.66,29.91-59.89,76.03-131.87,76.03-77.91,0-116.29-54.03-136.9-83.06-1.34-1.89-2.92-4.11-4.52-6.31-3.11,1.92-7.45,4.89-13.93,9.48-25.29,17.95-63.5,45.08-124.22,45.08h-58.02c-48.07,0-87.04-38.97-87.04-87.04s38.97-87.04,87.04-87.04Z"/>
    <path class="cls-1" d="M3891.42,4667.28c-64.09,0-116.05,51.96-116.05,116.05v348.15c0,64.09,51.96,116.05,116.05,116.05s116.05-51.96,116.05-116.05v-348.15c0-64.09-51.96-116.05-116.05-116.05ZM3978.46,5131.49c0,48.07-38.97,87.04-87.04,87.04s-87.04-38.97-87.04-87.04v-348.15c0-48.07,38.97-87.04,87.04-87.04s87.04,38.97,87.04,87.04v348.15Z"/>
    <path class="cls-1" d="M3683.57,3599.07l-57.8-57.79c-45.32-45.32-118.81-45.31-164.12,0-45.32,45.32-45.31,118.8,0,164.12l57.8,57.8c22.66,22.66,52.35,33.99,82.06,33.99s59.41-11.33,82.06-33.99c45.32-45.33,45.31-118.8,0-164.12ZM3663.07,3742.68c-16.99,17-39.27,25.5-61.55,25.5s-44.55-8.5-61.54-25.49l-57.8-57.8c-33.99-33.99-34-89.1,0-123.09,33.99-33.99,89.1-34,123.09,0l57.8,57.8c33.99,33.99,34,89.1,0,123.09Z"/>
    <path class="cls-1" d="M2934,3536.3h174.08v-174.03h-174.08v174.03ZM2963.01,3391.28h116.05v116.01h-116.05v-116.01Z"/>
    <path class="cls-1" d="M3688.34,5919.05h114.92v-120.26h-114.92v120.26ZM3717.35,5827.8h56.89v62.24h-56.89v-62.24Z"/>
    <path class="cls-1" d="M2092.63,2637.04h31.08c10.39,14.59,24.41,33.72,44.78,50.93,32.45,27.41,71.89,41.9,114.04,41.9s81.59-14.49,114.04-41.9c6.58-5.56,12.49-11.31,17.83-17.05,5.35,5.74,11.26,11.5,17.84,17.05,18.24,15.41,38.69,26.73,60.58,33.7,13.29,5.29,27.78,8.21,42.95,8.21h10.51c15.17,0,29.67-2.91,42.95-8.21,21.89-6.96,42.33-18.29,60.57-33.7,6.57-5.55,12.49-11.31,17.83-17.04,5.34,5.74,11.25,11.49,17.83,17.05,32.45,27.41,71.88,41.9,114.04,41.9s81.59-14.49,114.04-41.9c14.17-11.97,25.27-24.87,34.21-36.52,27.25,18.77,69.25,43.61,131.32,43.61h58.03c64.09,0,116.05-51.96,116.05-116.05s-51.96-116.05-116.05-116.05h-53.72c-3.08-1.98-7.5-5.12-10.99-7.6-26.57-18.86-71.05-50.42-141.01-50.42-42.15,0-81.59,14.49-114.04,41.9-6.58,5.55-12.49,11.31-17.84,17.05-5.35-5.74-11.26-11.49-17.84-17.05-32.45-27.41-71.89-41.9-114.04-41.9s-81.59,14.49-114.04,41.9c-4.49,3.79-8.67,7.68-12.57,11.59-3.91-3.91-8.09-7.8-12.58-11.59-32.45-27.41-71.89-41.9-114.04-41.9s-81.59,14.49-114.04,41.9c-6.58,5.55-12.49,11.31-17.84,17.05-5.34-5.74-11.26-11.5-17.84-17.05-32.45-27.41-71.88-41.9-114.03-41.9h-58.03c-64.09,0-116.05,51.96-116.05,116.05s51.96,116.05,116.05,116.05ZM2092.63,2433.95h58.03c71.98,0,110.21,46.12,131.87,76.03,21.66-29.91,59.89-76.03,131.87-76.03,66.48,0,104.18,39.35,126.62,68.92,22.43-29.58,60.13-68.92,126.61-68.92,71.98,0,110.21,46.12,131.87,76.03,21.66-29.91,59.9-76.03,131.88-76.03,60.72,0,98.93,27.12,124.22,45.07,17.47,12.4,19.42,12.95,23.47,12.95h58.03c48.07,0,87.04,38.97,87.04,87.04s-38.97,87.04-87.04,87.04h-58.03c-60.71,0-98.93-27.12-124.22-45.07-6.48-4.6-10.82-7.57-13.93-9.48-1.6,2.2-3.18,4.42-4.52,6.31-20.62,29.02-58.99,83.05-136.9,83.05-71.98,0-110.21-46.12-131.87-76.02-17.09,23.59-44.48,57.26-90.6,70.44-9.56,3.61-19.92,5.59-30.75,5.59h-10.51c-10.83,0-21.19-1.98-30.75-5.59-46.13-13.18-73.52-46.85-90.61-70.44-21.66,29.91-59.9,76.03-131.87,76.03-77.91,0-116.28-54.02-136.9-83.05-2.07-2.91-4.69-6.61-7.07-9.78h-45.93c-48.07,0-87.04-38.97-87.04-87.04s38.97-87.04,87.04-87.04Z"/>
    <path class="cls-1" d="M3803.25,2371.74h-114.92v120.23h114.92v-120.23ZM3774.24,2462.96h-56.89v-62.21h56.89v62.21Z"/>
    <path class="cls-1" d="M1395.52,2694.42c-40.07-29.83-94.73-30.68-135.7-2.11l-150.49,104.96c-10.23,7.13-19.24,15.87-26.7,25.88-27.77,37.29-39.36,83.17-32.62,129.18,6.74,46.01,30.99,86.63,68.29,114.4,31.15,23.19,67.59,34.38,103.74,34.38,53.17,0,105.71-24.22,139.84-70.05,7.45-10.01,13.24-21.15,17.14-32.99l57.41-174.26c15.63-47.44-.85-99.57-40.91-129.4ZM1408.87,2814.74l-57.41,174.26c-2.93,8.89-7.27,17.24-12.86,24.75-28.44,38.19-72.22,58.37-116.53,58.37-30.12,0-60.49-9.32-86.45-28.65-31.08-23.14-51.29-56.99-56.91-95.33-5.61-38.34,4.04-76.57,27.18-107.65,5.59-7.5,12.35-14.06,20.02-19.4l150.5-104.96c30.73-21.43,71.73-20.8,101.77,1.58,30.05,22.38,42.41,61.47,30.68,97.05Z"/>
    <path class="cls-1" d="M6629.06,1589.11c164.23,163.55,313.28,343.37,443,534.45,30.13,44.38,59.29,89.49,87.43,135.21l109.28-63.09c-29.49-47.98-60.05-95.28-91.66-141.84-134.25-197.76-288.52-383.87-458.52-553.17-1.18-1.17-2.36-2.35-3.55-3.52-.25-.24-.49-.49-.74-.73-168.66-167.43-354.16-319.77-551.4-452.84-49.32-33.27-99.5-65.42-150.42-96.38l-62.83,108.92c48.3,29.42,95.9,59.95,142.7,91.52,192.12,129.61,372.69,278.15,536.69,441.48ZM6022.73,987.51c41.87,25.91,83.2,52.62,123.95,80.12,195.68,132.01,379.68,283.11,547.01,449.2.36.36.73.72,1.09,1.08,1.11,1.1,2.23,2.22,3.34,3.32,168.69,168,321.77,352.68,454.99,548.9,25.78,37.97,50.87,76.46,75.23,115.39l-59.01,34.07c-23.73-37.9-48.16-75.36-73.26-112.33-130.76-192.61-281-373.86-446.54-538.71-165.31-164.63-347.31-314.34-540.95-444.97-39.36-26.55-79.28-52.37-119.69-77.42l33.83-58.66Z"/>
    <path class="cls-1" d="M2382.76,3623.79c0,255.94,208.24,464.16,464.2,464.16h580.26c64.09,0,116.05-51.96,116.05-116.05s-51.96-116.05-116.05-116.05h-580.26c-127.98,0-232.1-104.1-232.1-232.06v-584.34h464.2v119.73h-232.1c-64.09,0-116.05,51.96-116.05,116.05v348.11c0,64.09,51.96,116.05,116.05,116.05h348.15c64.09,0,116.05-51.96,116.05-116.05v-232.06h232.1c64.09,0,116.05-51.96,116.05-116.05s-51.96-116.05-116.05-116.05h-232.1v-119.73h187.54c19.49,36.73,58.12,61.74,102.59,61.74,48.85,0,90.65-30.18,107.77-72.92,39.2-18.63,66.31-58.59,66.31-104.88,0-42.96-23.33-80.46-58.03-100.53v-127.81h172.94c64.09,0,116.05-51.96,116.05-116.05v-294.31c0-64.09-51.96-116.05-116.05-116.05h-288.99c-64.09,0-116.05,51.96-116.05,116.05v178.26h-58.03c-64.09,0-116.05,51.96-116.05,116.05s51.96,116.05,116.05,116.05h58.03v112.28h-1392.61c-127.98,0-232.1-104.1-232.1-232.06,0-64.09-51.96-116.05-116.05-116.05h-58.03v-114.92h58.03c64.09,0,116.05-51.96,116.05-116.05,0-127.96,104.12-232.06,232.1-232.06,64.09,0,116.05-51.96,116.05-116.05s-51.96-116.05-116.05-116.05c-215.91,0-397.85,148.14-449.52,348.11h-72.71c-64.09,0-116.05,51.96-116.05,116.05v347.02c0,64.09,51.96,116.05,116.05,116.05h72.71c51.66,199.97,233.61,348.11,449.52,348.11h290.13v584.34ZM2092.63,3010.43c-210.16,0-386-149.74-426.44-348.11h-95.78c-48.07,0-87.04-38.97-87.04-87.04v-347.02c0-48.07,38.97-87.04,87.04-87.04h95.78c40.44-198.38,216.28-348.11,426.44-348.11,48.07,0,87.04,38.97,87.04,87.04s-38.97,87.04-87.04,87.04c-143.98,0-261.11,117.12-261.11,261.07,0,48.07-38.97,87.04-87.04,87.04h-87.04v172.94h87.04c48.07,0,87.04,38.97,87.04,87.04,0,143.95,117.14,261.07,261.11,261.07h1421.63v-170.31h-87.04c-48.07,0-87.04-38.97-87.04-87.04s38.97-87.04,87.04-87.04h87.04v-207.27c0-48.07,38.97-87.04,87.04-87.04h288.99c48.07,0,87.04,38.97,87.04,87.04v294.31c0,48.07-38.97,87.04-87.04,87.04h-201.96v175.26c33.81,11.95,58.03,44.19,58.03,82.09s-25.47,71.77-60.63,82.96c-9.47,37.82-43.68,65.82-84.43,65.82s-72.47-26.01-83.3-61.74h-235.84v177.76h261.12c48.07,0,87.04,38.97,87.04,87.04s-38.97,87.04-87.04,87.04h-261.12v261.07c0,48.07-38.97,87.04-87.04,87.04h-348.15c-48.07,0-87.04-38.97-87.04-87.04v-348.11c0-48.07,38.97-87.04,87.04-87.04h261.12v-177.76h-522.23v613.35c0,143.95,117.14,261.07,261.12,261.07h580.26c48.07,0,87.04,38.97,87.04,87.04s-38.97,87.04-87.04,87.04h-580.26c-239.96,0-435.19-195.21-435.19-435.15v-613.35h-319.14Z"/>
    <path class="cls-1" d="M3137.09,5595.69h-58.03c-62.06,0-104.07,24.84-131.31,43.61-8.94-11.65-20.04-24.56-34.21-36.52-32.45-27.41-71.89-41.9-114.04-41.9s-81.59,14.49-114.04,41.91c-6.57,5.55-12.49,11.31-17.83,17.04-5.34-5.74-11.26-11.49-17.83-17.04-18.24-15.41-38.68-26.73-60.57-33.7-13.29-5.3-27.78-8.21-42.96-8.21h-10.51c-15.17,0-29.67,2.91-42.95,8.21-21.89,6.96-42.34,18.29-60.58,33.7-6.57,5.55-12.49,11.31-17.83,17.05-5.34-5.74-11.25-11.49-17.83-17.05-32.45-27.42-71.89-41.91-114.04-41.91s-81.59,14.49-114.04,41.91c-20.37,17.21-34.39,36.35-44.78,50.93h-31.08c-64.09,0-116.05,51.96-116.05,116.05s51.96,116.05,116.05,116.05h58.03c42.15,0,81.59-14.49,114.04-41.91,6.57-5.55,12.49-11.31,17.83-17.05,5.34,5.74,11.26,11.49,17.83,17.05,32.45,27.42,71.89,41.91,114.04,41.91s81.59-14.49,114.04-41.91c4.49-3.79,8.67-7.67,12.57-11.59,3.9,3.91,8.08,7.79,12.57,11.59,32.45,27.42,71.89,41.91,114.04,41.91s81.59-14.49,114.04-41.91c6.57-5.55,12.49-11.31,17.83-17.05,5.34,5.74,11.26,11.5,17.83,17.05,32.45,27.42,71.89,41.9,114.04,41.9,69.97,0,114.44-31.57,141.01-50.43,3.49-2.47,7.91-5.61,10.99-7.59h53.71c64.09,0,116.05-51.96,116.05-116.05s-51.96-116.05-116.05-116.05ZM3137.09,5798.78h-58.03c-4.05,0-5.99.55-23.46,12.95-25.29,17.95-63.5,45.07-124.22,45.07-71.98,0-110.22-46.12-131.87-76.03-21.66,29.91-59.9,76.03-131.87,76.03-66.48,0-104.17-39.34-126.61-68.92-22.44,29.58-60.13,68.92-126.62,68.92-71.98,0-110.21-46.12-131.87-76.03-21.66,29.91-59.89,76.03-131.87,76.03h-58.03c-48.07,0-87.04-38.97-87.04-87.04s38.97-87.04,87.04-87.04h45.93c2.38-3.17,5.01-6.87,7.07-9.78,20.62-29.03,58.99-83.06,136.9-83.06,71.98,0,110.21,46.12,131.87,76.04,17.08-23.59,44.47-57.27,90.6-70.45,9.56-3.61,19.93-5.59,30.75-5.59h10.51c10.83,0,21.19,1.98,30.75,5.59,46.13,13.17,73.52,46.85,90.6,70.44,21.66-29.91,59.9-76.03,131.87-76.03,77.91,0,116.29,54.03,136.9,83.06,1.34,1.89,2.92,4.12,4.52,6.31,3.11-1.91,7.45-4.88,13.93-9.48,25.29-17.95,63.5-45.07,124.22-45.07h58.03c48.07,0,87.04,38.97,87.04,87.04s-38.97,87.04-87.04,87.04Z"/>
    <path class="cls-1" d="M2934,4928.4h174.08v-174.08h-174.08v174.08ZM2963.01,4783.33h116.05v116.05h-116.05v-116.05Z"/>
    <path class="cls-1" d="M1379.02,5292.63c-3.9-11.85-9.69-22.99-17.14-32.99-27.77-37.29-68.4-61.55-114.4-68.28-46-6.74-91.88,4.84-129.18,32.61-37.29,27.77-61.55,68.4-68.28,114.41-6.74,46.01,4.84,91.89,32.62,129.18,7.45,10,16.46,18.74,26.69,25.87l150.5,104.98c19.97,13.93,43.19,20.87,66.39,20.87,24.4,0,48.77-7.68,69.31-22.97,40.07-29.83,56.55-81.95,40.92-129.4l-57.41-174.28ZM1378.19,5573.03c-15.4,11.47-33.69,17.22-51.98,17.22s-34.81-5.2-49.79-15.65l-150.5-104.98c-7.67-5.35-14.43-11.9-20.02-19.41-23.14-31.08-32.79-69.31-27.18-107.65,5.61-38.34,25.82-72.2,56.91-95.34,31.08-23.14,69.3-32.8,107.65-27.17,38.34,5.61,72.2,25.82,95.34,56.9,5.59,7.5,9.92,15.86,12.86,24.74l57.41,174.28c11.72,35.58-.64,74.68-30.69,97.05Z"/>
    <path class="cls-1" d="M3519.45,4527.42l-57.8,57.81c-45.32,45.32-45.32,118.8,0,164.12,22.66,22.66,52.36,33.99,82.06,33.99s59.4-11.33,82.06-33.99l57.8-57.8c45.32-45.32,45.32-118.8,0-164.12s-118.8-45.32-164.12,0ZM3663.07,4671.02l-57.8,57.8c-17,17-39.27,25.5-61.55,25.5s-44.55-8.5-61.54-25.49c-34-33.99-34-89.1,0-123.09l57.8-57.8c33.99-33.99,89.1-33.99,123.09,0,33.99,33.99,33.99,89.1,0,123.09Z"/>
    <path class="cls-1" d="M2319.58,4425.52c33.38-72.8,80.69-136.95,140.63-190.66,26.41-23.67,39.44-56.7,38.57-89.58.88-32.88-12.15-65.92-38.57-89.59-59.94-53.7-107.25-117.83-140.63-190.63-26.71-58.26-95.59-83.84-153.86-57.12-58.26,26.71-83.83,95.6-57.12,153.86,30.53,66.59,69.37,127.98,115.99,183.48-46.63,55.51-85.46,116.91-115.99,183.51-26.71,58.26-1.13,127.15,57.13,153.86,15.68,7.19,32.11,10.59,48.29,10.59,43.97,0,86.04-25.13,105.57-67.72ZM2214.02,4464.22c-12.13,0-24.46-2.55-36.22-7.94-43.7-20.03-62.88-71.7-42.84-115.39,32.9-71.77,75.81-137.28,128.03-195.6-52.22-58.31-95.13-123.82-128.03-195.58-20.04-43.69-.86-95.36,42.84-115.4,43.7-20.04,95.36-.85,115.4,42.84,35.05,76.44,84.72,143.78,147.64,200.15,20.02,17.94,29.79,43.06,28.91,67.97.89,24.92-8.88,50.04-28.9,67.97-62.92,56.38-112.6,123.73-147.65,200.17-14.64,31.95-46.19,50.79-79.17,50.79Z"/>
    <path class="cls-1" d="M3890.29,5595.69h-172.94v-127.85c34.69-20.06,58.03-57.57,58.03-100.52,0-46.29-27.1-86.25-66.3-104.88-17.12-42.74-58.92-72.92-107.77-72.92-44.47,0-83.11,25.02-102.59,61.75h-187.54v-119.78h232.1c64.09,0,116.05-51.96,116.05-116.05s-51.96-116.05-116.05-116.05h-232.1v-232.1c0-64.09-51.96-116.05-116.05-116.05h-348.15c-64.09,0-116.05,51.96-116.05,116.05v348.15c0,64.09,51.96,116.05,116.05,116.05h232.1v119.78h-464.2v-584.43c0-127.98,104.12-232.1,232.1-232.1h580.26c64.09,0,116.05-51.96,116.05-116.05s-51.96-116.05-116.05-116.05h-580.26c-255.96,0-464.2,208.24-464.2,464.2v584.43h-290.13c-215.91,0-397.86,148.16-449.52,348.15h-72.71c-64.09,0-116.05,51.96-116.05,116.05v347.06c0,64.09,51.96,116.05,116.05,116.05h72.71c51.66,199.99,233.61,348.15,449.52,348.15,64.09,0,116.05-51.96,116.05-116.05s-51.96-116.05-116.05-116.05c-127.98,0-232.1-104.12-232.1-232.1,0-64.09-51.96-116.05-116.05-116.05h-58.03v-114.96h58.03c64.09,0,116.05-51.96,116.05-116.05,0-127.98,104.12-232.1,232.1-232.1h1392.61v112.32h-58.03c-64.09,0-116.05,51.96-116.05,116.05s51.96,116.05,116.05,116.05h58.03v178.29c0,64.09,51.96,116.05,116.05,116.05h288.99c64.09,0,116.05-51.96,116.05-116.05v-294.34c0-64.09-51.96-116.05-116.05-116.05ZM3977.33,6006.09c0,48.07-38.97,87.04-87.04,87.04h-288.99c-48.07,0-87.04-38.97-87.04-87.04v-207.3h-87.04c-48.07,0-87.04-38.97-87.04-87.04s38.97-87.04,87.04-87.04h87.04v-170.35h-1421.63c-143.98,0-261.11,117.14-261.11,261.12,0,48.07-38.97,87.04-87.04,87.04h-87.04v172.99h87.04c48.07,0,87.04,38.97,87.04,87.04,0,143.98,117.14,261.12,261.11,261.12,48.07,0,87.04,38.97,87.04,87.04s-38.97,87.04-87.04,87.04c-210.16,0-386.01-149.76-426.45-348.15h-95.78c-48.07,0-87.04-38.97-87.04-87.04v-347.06c0-48.07,38.97-87.04,87.04-87.04h95.78c40.44-198.39,216.29-348.15,426.45-348.15h319.14v-613.44c0-239.96,195.23-435.19,435.19-435.19h580.26c48.07,0,87.04,38.97,87.04,87.04s-38.97,87.04-87.04,87.04h-580.26c-143.98,0-261.12,117.14-261.12,261.12v613.44h522.23v-177.8h-261.12c-48.07,0-87.04-38.97-87.04-87.04v-348.15c0-48.07,38.97-87.04,87.04-87.04h348.15c48.07,0,87.04,38.97,87.04,87.04v261.12h261.12c48.07,0,87.04,38.97,87.04,87.04s-38.97,87.04-87.04,87.04h-261.12v177.8h235.83c10.83-35.74,44.03-61.75,83.31-61.75s74.97,28.01,84.44,65.83c35.16,11.18,60.63,44.1,60.63,82.96s-24.22,70.14-58.03,82.08v175.31h201.96c48.07,0,87.04,38.97,87.04,87.04v294.34Z"/>
    <path class="cls-1" d="M2934,1505.21v-174.03h-174.08v174.03h174.08ZM2788.94,1360.19h116.05v116.01h-116.05v-116.01Z"/>
    <path class="cls-1" d="M2654.46,812.88c218.6-92.97,447.48-164.98,680.28-214.03,180.05-37.93,364.1-62.47,549.25-73.3,1.54-.13,3.08-.22,4.64-.27,58.58-3.35,117.28-5.33,175.98-5.93,1.02,0,2.03,0,3.04.02,58.28.62,116.53,2.59,174.7,5.92,1.57.05,3.12.14,4.67.27,185.14,10.83,369.21,35.37,549.24,73.31,232.8,49.05,461.68,121.07,680.28,214.06,109.72,46.67,217.43,98.87,322.35,156.17l62.83-108.92c-109.49-59.91-221.9-114.44-336.45-163.16-226.34-96.28-463.34-170.85-704.41-221.65-246.36-51.91-500.05-79.61-754.04-82.34-.15,0-.3,0-.44,0-254.74,2.59-509.18,30.3-756.26,82.36-241.06,50.79-478.06,125.35-704.41,221.62-114.54,48.72-226.95,103.24-336.44,163.14l62.82,108.89c104.92-57.29,212.63-109.49,322.36-156.15ZM2617.07,723.7c224.62-95.53,459.81-169.53,699.04-219.93,245.22-51.66,497.75-79.16,750.58-81.73.08,0,.17,0,.25,0,251.95,2.74,503.59,30.23,747.96,81.72,239.22,50.41,474.42,124.41,699.03,219.96,104.59,44.49,207.4,93.86,307.79,147.77l-33.83,58.65c-97.86-52.48-198.05-100.56-299.97-143.91-220.33-93.72-451.02-166.31-685.66-215.75-181.31-38.2-366.65-62.93-553.1-73.86-1.82-.15-3.66-.26-5.51-.32-58.41-3.34-116.92-5.32-175.44-5.94-1.29-.03-2.59-.04-3.88-.02-59.03.6-118.05,2.59-176.95,5.95-1.85.06-3.69.17-5.52.32-186.44,10.93-371.78,35.65-553.09,73.85-234.64,49.44-465.33,122.01-685.66,215.72-101.92,43.35-202.12,91.43-299.98,143.9l-33.82-58.63c100.39-53.9,203.19-103.27,307.77-147.75Z"/>
    <path class="cls-1" d="M5197,6785.66v174.08h174.08v-174.08h-174.08ZM5342.06,6930.73h-116.05v-116.05h116.05v116.05Z"/>
    <path class="cls-1" d="M5197,1331.26v174.08h174.08v-174.08h-174.08ZM5342.06,1476.33h-116.05v-116.05h116.05v116.05Z"/>
    <path class="cls-1" d="M2934,6959.74v-174.08h-174.08v174.08h174.08ZM2788.94,6814.67h116.05v116.05h-116.05v-116.05Z"/>
    <path class="cls-1" d="M4327.75,5919.05h114.92v-120.26h-114.92v120.26ZM4356.76,5827.8h56.89v62.24h-56.89v-62.24Z"/>
    <path class="cls-1" d="M6647.64,3536.68v87.48c0,143.98,117.14,261.12,261.11,261.12h599.62c-27.8-373.41-115.53-735.62-261.85-1080-55.6-130.87-119.73-258.78-191.57-382.26-.51-.83-1.01-1.67-1.5-2.51-.37-.64-.73-1.28-1.08-1.92-39.2-67.13-80.68-132.97-124.32-197.24-123.51-181.93-265.43-353.14-421.82-508.89-156.22-155.58-328.22-297.06-511.22-420.52-184.5-124.47-381.87-231.74-586.59-318.83-345.06-146.77-707.9-236.41-1081.79-267.51v455s203.08,0,203.08,0c48.07,0,87.04,38.97,87.04,87.04v257.71h406.18v-261.12c0-48.07,38.97-87.04,87.04-87.04h348.15c48.07,0,87.04,38.97,87.04,87.04v348.15c0,48.07-38.97,87.04-87.04,87.04h-261.12v179.03c33.81,11.95,58.03,44.19,58.03,82.08,0,48.07-38.97,87.04-87.04,87.04h-58.03c-48.07,0-87.04-38.97-87.04-87.04v-261.12h-406.18v116.05h203.09c48.05,0,87.01,38.93,87.04,86.97l.19,261.25,414.66.32c40.28-198.6,216.22-348.54,426.52-348.54,48.07,0,87.04,38.97,87.04,87.04s-38.97,87.04-87.04,87.04c-113.64,0-210.56,72.97-246.35,174.52h536.48c48.07,0,87.04,38.97,87.04,87.04s-38.97,87.04-87.04,87.04h-638.28l-580.08-.45c-48.02-.04-86.93-38.96-86.97-86.97l-.19-261.18h-203.15c-48.07,0-87.04-38.97-87.04-87.04v-203.09h-116.05v237.5c33.81,11.95,58.03,44.19,58.03,82.09,0,48.07-38.97,87.04-87.04,87.04h-58.03c-48.07,0-87.04-38.97-87.04-87.04v-406.63c0-48.07,38.97-87.04,87.04-87.04h203.09v-170.67h-203.09c-23.08,0-45.22-9.17-61.55-25.49-16.33-16.33-25.49-38.46-25.49-61.55v-552.25c-29.06-1-58.19-1.65-87.37-1.95-28.96.31-57.87.96-86.71,1.94v552.17c0,23.08-9.16,45.22-25.48,61.55-16.32,16.32-38.46,25.49-61.54,25.49h-203.09v170.63h203.09c48.07,0,87.04,38.97,87.04,87.04v406.57c0,48.07-38.97,87.04-87.04,87.04h-58.03c-48.07,0-87.04-38.97-87.04-87.04,0-37.9,24.22-70.14,58.03-82.08v-237.45h-116.05v203.05c0,48.07-38.97,87.04-87.04,87.04h-203.15l-.19,261.13c-.04,48.02-38.95,86.94-86.97,86.98l-580.01.45h-638.35c-48.07,0-87.04-38.97-87.04-87.04s38.97-87.04,87.04-87.04h536.48c-35.8-101.52-132.72-174.48-246.35-174.48-48.07,0-87.04-38.97-87.04-87.04s38.97-87.04,87.04-87.04c210.31,0,386.24,149.92,426.52,348.5l414.66-.32.19-261.2c.03-48.04,38.99-86.97,87.04-86.97h203.09v-116.02h-406.18v261.07c0,48.07-38.97,87.04-87.04,87.04h-58.03c-48.07,0-87.04-38.97-87.04-87.04,0-37.9,24.22-70.14,58.03-82.09v-178.99h-261.12c-48.07,0-87.04-38.97-87.04-87.04v-348.11c0-48.07,38.97-87.04,87.04-87.04h348.15c48.07,0,87.04,38.97,87.04,87.04v261.07h406.18v-257.66c0-48.07,38.97-87.04,87.04-87.04h203.09v-454.92c-373.9,31.1-736.74,120.72-1081.79,267.48-204.74,87.07-402.09,194.33-586.6,318.79-183,123.44-355,264.91-511.21,420.46-156.39,155.73-298.31,326.92-421.82,508.82-43.64,64.28-85.12,130.09-124.32,197.22-.35.64-.7,1.28-1.07,1.91-.49.85-.99,1.69-1.51,2.52-71.85,123.47-135.96,251.35-191.57,382.22-146.31,344.31-234.05,706.51-261.85,1079.85h599.61c143.98,0,261.12-117.12,261.12-261.07v-87.46h-174.07v87.02c0,48.07-38.97,87.04-87.04,87.04s-87.04-38.97-87.04-87.04v-87.02h-58.03v29c0,48.07-38.97,87.04-87.04,87.04s-87.04-38.97-87.04-87.04v-232.07c0-48.07,38.97-87.04,87.04-87.04s87.04,38.97,87.04,87.04v29h58.03v-87.02c0-48.07,38.97-87.04,87.04-87.04s87.04,38.97,87.04,87.04v87.02h174.07v-261.07c0-48.07,38.97-87.04,87.04-87.04s87.04,38.97,87.04,87.04v261.07h174.08v-87.02c0-48.07,38.97-87.04,87.04-87.04s87.04,38.97,87.04,87.04v87.02h58.02v-29c0-48.07,38.97-87.04,87.04-87.04s87.04,38.97,87.04,87.04v232.07c0,48.07-38.97,87.04-87.04,87.04s-87.04-38.97-87.04-87.04v-29h-58.02v87.02c0,48.07-38.97,87.04-87.04,87.04s-87.04-38.97-87.04-87.04v-87.02h-174.08v87.46c0,239.94-195.23,435.15-435.19,435.15h-608.21c-.7,28.73-1.06,57.51-1.06,86.35,0,28.84.36,57.63,1.06,86.37h608.21c239.97,0,435.19,195.23,435.19,435.19v87.48h174.08v-87.04c0-48.07,38.97-87.04,87.04-87.04s87.04,38.97,87.04,87.04v87.04h58.02v-29.02c0-48.07,38.97-87.04,87.04-87.04s87.04,38.97,87.04,87.04v232.1c0,48.07-38.97,87.04-87.04,87.04s-87.04-38.97-87.04-87.04v-29.01h-58.02v87.04c0,48.07-38.97,87.04-87.04,87.04s-87.04-38.97-87.04-87.04v-87.04h-174.08v261.12c0,48.07-38.97,87.04-87.04,87.04s-87.04-38.97-87.04-87.04v-261.12h-174.07v87.04c0,48.07-38.97,87.04-87.04,87.04s-87.04-38.97-87.04-87.04v-87.04h-58.03v29.01c0,48.07-38.97,87.04-87.04,87.04s-87.04-38.97-87.04-87.04v-232.1c0-48.07,38.97-87.04,87.04-87.04s87.04,38.97,87.04,87.04v29.02h58.03v-87.04c0-48.07,38.97-87.04,87.04-87.04s87.04,38.97,87.04,87.04v87.04h174.07v-87.48c0-143.98-117.14-261.12-261.12-261.12h-599.61c27.8,373.41,115.53,735.62,261.85,1080,55.61,130.88,119.73,258.78,191.58,382.26.51.83,1.01,1.66,1.5,2.5.37.64.73,1.27,1.08,1.92,39.2,67.15,80.68,132.96,124.32,197.25,123.51,181.93,265.43,353.14,421.82,508.89,156.22,155.57,328.22,297.06,511.21,420.52,184.5,124.47,381.87,231.74,586.59,318.83,345.06,146.78,707.89,236.41,1081.79,267.51v-454.99s-203.08,0-203.08,0c-48.07,0-87.04-38.97-87.04-87.04v-257.71h-406.18v261.12c0,48.07-38.97,87.04-87.04,87.04h-348.15c-48.07,0-87.04-38.97-87.04-87.04v-348.15c0-48.07,38.97-87.04,87.04-87.04h261.12v-179.03c-33.81-11.95-58.03-44.19-58.03-82.09,0-48.07,38.97-87.04,87.04-87.04h58.03c48.07,0,87.04,38.97,87.04,87.04v261.12h406.18v-116.05h-203.09c-48.04,0-87.01-38.93-87.04-86.98l-.19-261.24-414.66-.32c-40.28,198.6-216.22,348.54-426.52,348.54-48.07,0-87.04-38.97-87.04-87.04s38.97-87.04,87.04-87.04c113.65,0,210.56-72.97,246.35-174.52h-536.48c-48.07,0-87.04-38.97-87.04-87.04s38.97-87.04,87.04-87.04h638.28l580.08.45c48.02.04,86.93,38.96,86.97,86.98l.19,261.18h203.15c48.07,0,87.04,38.97,87.04,87.04v203.09h116.05v-237.5c-33.81-11.95-58.03-44.19-58.03-82.09,0-48.07,38.97-87.04,87.04-87.04h58.03c48.07,0,87.04,38.97,87.04,87.04v406.62c0,48.07-38.97,87.04-87.04,87.04h-203.09v170.67h203.09c23.08,0,45.22,9.17,61.54,25.49,16.33,16.32,25.49,38.46,25.49,61.55v552.25c28.95,1,57.97,1.65,87.04,1.95,29.07-.3,58.09-.95,87.05-1.95v-552.25c0-23.08,9.16-45.22,25.48-61.55,16.32-16.33,38.46-25.49,61.55-25.49h203.09v-170.67h-203.09c-48.07,0-87.04-38.97-87.04-87.04v-406.62c0-48.07,38.97-87.04,87.04-87.04h58.03c48.07,0,87.04,38.97,87.04,87.04,0,37.9-24.22,70.14-58.03,82.09v237.5h116.05v-203.09c0-48.07,38.97-87.04,87.04-87.04h203.15l.19-261.18c.03-48.02,38.95-86.94,86.97-86.98l580.01-.45h638.35c48.07,0,87.04,38.97,87.04,87.04s-38.97,87.04-87.04,87.04h-536.48c35.79,101.55,132.71,174.52,246.35,174.52,48.07,0,87.04,38.97,87.04,87.04s-38.97,87.04-87.04,87.04c-210.31,0-386.25-149.94-426.52-348.54l-414.66.32-.19,261.24c-.03,48.05-38.99,86.98-87.04,86.98h-203.09v116.05h406.18v-261.12c0-48.07,38.97-87.04,87.04-87.04h58.03c48.07,0,87.04,38.97,87.04,87.04,0,37.9-24.22,70.14-58.03,82.09v179.03h261.12c48.07,0,87.04,38.97,87.04,87.04v348.15c0,48.07-38.97,87.04-87.04,87.04h-348.15c-48.07,0-87.04-38.97-87.04-87.04v-261.12h-406.18v257.71c0,48.07-38.97,87.04-87.04,87.04h-203.09v454.99c373.9-31.1,736.73-120.73,1081.79-267.51,204.73-87.09,402.09-194.36,586.59-318.83,183-123.46,355-264.94,511.22-420.52,156.39-155.75,298.3-326.96,421.82-508.89,43.64-64.29,85.12-130.1,124.32-197.25.35-.64.71-1.28,1.08-1.92.49-.84.99-1.68,1.5-2.5,71.85-123.49,135.97-251.39,191.58-382.26,146.33-344.38,234.06-706.59,261.85-1080h-599.62c-143.98,0-261.11,117.14-261.11,261.12v87.48h174.07v-87.04c0-48.07,38.97-87.04,87.04-87.04s87.04,38.97,87.04,87.04v87.04h58.03v-29.02c0-48.07,38.97-87.04,87.04-87.04s87.04,38.97,87.04,87.04v115.43c0,.21,0,.42,0,.63s0,.42,0,.63v115.42c0,48.07-38.97,87.04-87.04,87.04s-87.04-38.97-87.04-87.04v-29.01h-58.03v87.04c0,48.07-38.97,87.04-87.04,87.04s-87.04-38.97-87.04-87.04v-87.04h-174.07v261.12c0,48.07-38.97,87.04-87.04,87.04s-87.04-38.97-87.04-87.04v-261.12h-174.08v87.04c0,48.07-38.97,87.04-87.04,87.04s-87.04-38.97-87.04-87.04v-87.04h-58.02v29.01c0,48.07-38.97,87.04-87.04,87.04s-87.04-38.97-87.04-87.04v-232.1c0-48.07,38.97-87.04,87.04-87.04s87.04,38.97,87.04,87.04v29.02h58.02v-87.04c0-48.07,38.97-87.04,87.04-87.04s87.04,38.97,87.04,87.04v87.04h174.08v-87.48c0-239.96,195.22-435.19,435.19-435.19h608.21c.7-28.67,1.05-57.36,1.06-86.15,0-28.79-.36-57.47-1.06-86.15h-608.21c-239.96,0-435.19-195.23-435.19-435.19v-87.48h-174.08v87.04c0,48.07-38.97,87.04-87.04,87.04s-87.04-38.97-87.04-87.04v-87.04h-58.02v29.01c0,48.07-38.97,87.04-87.04,87.04s-87.04-38.97-87.04-87.04v-232.1c0-48.07,38.97-87.04,87.04-87.04s87.04,38.97,87.04,87.04v29.01h58.02v-87.04c0-48.07,38.97-87.04,87.04-87.04s87.04,38.97,87.04,87.04v87.04h174.08v-261.12c0-48.07,38.97-87.04,87.04-87.04s87.04,38.97,87.04,87.04v261.12h174.07v-87.04c0-48.07,38.97-87.04,87.04-87.04s87.04,38.97,87.04,87.04v87.04h58.03v-29.01c0-48.07,38.97-87.04,87.04-87.04s87.04,38.97,87.04,87.04v115.42c0,.21,0,.42,0,.63s0,.42,0,.63v115.42c0,48.07-38.97,87.04-87.04,87.04s-87.04-38.97-87.04-87.04v-29.01h-58.03v87.04c0,48.07-38.97,87.04-87.04,87.04s-87.04-38.97-87.04-87.04v-87.04h-174.07ZM6908.75,3739.77c64.09,0,116.05-51.96,116.05-116.05v-58.02c0,64.09,51.96,116.05,116.05,116.05s116.05-51.96,116.05-116.05v-115.29c0-.25,0-.51,0-.76s0-.5,0-.76v-115.29c0-64.09-51.96-116.05-116.05-116.05s-116.05,51.96-116.05,116.05v-58.03c0-64.09-51.96-116.05-116.05-116.05s-116.05,51.96-116.05,116.05v58.03h-116.05v-232.1c0-64.09-51.96-116.05-116.05-116.05s-116.05,51.96-116.05,116.05v232.1h-116.05v-58.03c0-64.09-51.96-116.05-116.05-116.05s-116.05,51.96-116.05,116.05v57.27c-.41-63.74-52.21-115.29-116.05-115.29s-116.05,51.96-116.05,116.05v232.1c0,64.09,51.96,116.05,116.05,116.05s115.64-51.55,116.05-115.29v57.26c0,64.09,51.96,116.05,116.05,116.05s116.05-51.96,116.05-116.05v-58.03h116.05v58.47c0,255.96,208.24,464.21,464.2,464.21h579.79c.31,19.03.47,38.05.47,57.13,0,19.08-.16,38.11-.47,57.13h-579.79c-255.96,0-464.2,208.24-464.2,464.2v58.47h-116.05v-58.03c0-64.09-51.96-116.05-116.05-116.05s-116.05,51.96-116.05,116.05v57.26c-.41-63.74-52.21-115.29-116.05-115.29s-116.05,51.96-116.05,116.05v232.1c0,64.09,51.96,116.05,116.05,116.05s115.64-51.55,116.05-115.29v57.27c0,64.09,51.96,116.05,116.05,116.05s116.05-51.96,116.05-116.05v-58.02h116.05v232.1c0,64.09,51.96,116.05,116.05,116.05s116.05-51.96,116.05-116.05v-232.1h116.05v58.02c0,64.09,51.96,116.05,116.05,116.05s116.05-51.96,116.05-116.05v-58.03c0,64.09,51.96,116.05,116.05,116.05s116.05-51.96,116.05-116.05v-115.29c0-.25,0-.5,0-.76s0-.5,0-.76v-115.3c0-64.09-51.96-116.05-116.05-116.05s-116.05,51.96-116.05,116.05v-58.02c0-64.09-51.96-116.05-116.05-116.05s-116.05,51.96-116.05,116.05v58.03h-116.05v-58.47c0-127.98,104.12-232.1,232.1-232.1h568.22c-30.03,359.21-116.17,707.81-257.16,1039.64-55.08,129.65-118.59,256.34-189.75,378.67-.59.97-1.18,1.95-1.75,2.94-.41.71-.81,1.42-1.2,2.13-38.81,66.46-79.87,131.61-123.07,195.24-122.48,180.4-263.21,350.18-418.29,504.63-154.92,154.28-325.49,294.59-506.97,417.02-182.97,123.44-378.69,229.82-581.73,316.18-332.53,141.45-681.68,229.38-1041.42,262.54v-394.32s174.07,0,174.07,0c64.09,0,116.05-51.96,116.05-116.05v-228.69h348.15v232.1c0,64.09,51.96,116.05,116.05,116.05h348.15c64.09,0,116.05-51.96,116.05-116.05v-348.15c0-64.09-51.96-116.05-116.05-116.05h-232.1v-131.57c34.69-20.07,58.03-57.57,58.03-100.53,0-64.09-51.96-116.05-116.05-116.05h-58.03c-64.09,0-116.05,51.96-116.05,116.05v232.1h-348.15v-58.03h174.08c64.06,0,116.01-51.91,116.05-115.97l.17-232.27,362.58-.28c51.54,200.17,233.58,348.52,449.61,348.52,64.09,0,116.05-51.96,116.05-116.05s-51.96-116.05-116.05-116.05c-85.91,0-161.08-46.93-201.21-116.5h491.34c64.09,0,116.05-51.96,116.05-116.05s-51.96-116.05-116.05-116.05h-638.37l-580.01.45c-64.03.05-115.92,51.94-115.96,115.97l-.16,232.18h-174.16c-64.09,0-116.05,51.96-116.05,116.05v174.08h-58.03v-190.05c34.69-20.06,58.03-57.57,58.03-100.52,0-64.09-51.96-116.05-116.05-116.05h-58.03c-64.09,0-116.05,51.96-116.05,116.05v406.62c0,64.09,51.96,116.05,116.05,116.05h174.08v112.64h-174.08c-30.78,0-60.3,12.23-82.06,33.99-21.76,21.76-33.99,51.28-33.99,82.06v524.11c-19.31.51-38.65.88-58.03,1.08-19.37-.2-38.71-.56-58.03-1.08v-524.11c0-30.78-12.22-60.3-33.98-82.06-21.76-21.77-51.28-33.99-82.06-33.99h-174.08v-112.64h174.08c64.09,0,116.05-51.96,116.05-116.05v-406.62c0-64.09-51.96-116.05-116.05-116.05h-58.03c-64.09,0-116.05,51.96-116.05,116.05,0,42.96,23.33,80.46,58.03,100.52v190.05h-58.03v-174.08c0-64.09-51.96-116.05-116.05-116.05h-174.16l-.16-232.18c-.05-64.03-51.93-115.92-115.96-115.97l-580.1-.45h-638.28c-64.09,0-116.05,51.96-116.05,116.05s51.96,116.05,116.05,116.05h491.34c-40.13,69.56-115.29,116.5-201.21,116.5-64.09,0-116.05,51.96-116.05,116.05s51.96,116.05,116.05,116.05c216.03,0,398.07-148.35,449.62-348.52l362.58.28.17,232.27c.04,64.06,51.99,115.97,116.05,115.97h174.08v58.03h-348.15v-232.1c0-64.09-51.96-116.05-116.05-116.05h-58.03c-64.09,0-116.05,51.96-116.05,116.05,0,42.96,23.34,80.46,58.03,100.53v131.57h-232.1c-64.09,0-116.05,51.96-116.05,116.05v348.15c0,64.09,51.96,116.05,116.05,116.05h348.15c64.09,0,116.05-51.96,116.05-116.05v-232.1h348.15v228.69c0,64.09,51.96,116.05,116.05,116.05h174.07v394.32c-359.74-33.16-708.89-121.09-1041.42-262.54-203.03-86.36-398.76-192.74-581.73-316.18-181.48-122.44-352.05-262.74-506.97-417.02-155.08-154.45-295.81-324.23-418.29-504.63-43.2-63.63-84.26-128.79-123.07-195.24-.39-.71-.79-1.43-1.2-2.13-.57-.99-1.16-1.97-1.75-2.94-71.16-122.34-134.66-249.03-189.75-378.67-140.99-331.82-227.12-680.42-257.16-1039.64h568.22c127.98,0,232.1,104.12,232.1,232.1v58.47h-116.05v-58.03c0-64.09-51.96-116.05-116.05-116.05s-116.05,51.96-116.05,116.05v58.02c0-64.09-51.96-116.05-116.05-116.05s-116.05,51.96-116.05,116.05v115.3c0,.25,0,.5,0,.76s0,.5,0,.76v115.29c0,64.09,51.96,116.05,116.05,116.05s116.05-51.96,116.05-116.05v58.02c0,64.09,51.96,116.05,116.05,116.05s116.05-51.96,116.05-116.05v-58.02h116.05v232.1c0,64.09,51.96,116.05,116.05,116.05s116.05-51.96,116.05-116.05v-232.1h116.05v58.02c0,64.09,51.96,116.05,116.05,116.05s116.05-51.96,116.05-116.05v-57.27c.41,63.74,52.21,115.29,116.05,115.29s116.05-51.96,116.05-116.05v-232.1c0-64.09-51.96-116.05-116.05-116.05s-115.64,51.55-116.05,115.29v-57.26c0-64.09-51.96-116.05-116.05-116.05s-116.05,51.96-116.05,116.05v58.03h-116.05v-58.47c0-255.96-208.24-464.2-464.21-464.2h-579.78c-.31-19.08-.47-38.22-.47-57.35,0-19.13.16-38.25.47-57.34h579.78c255.96,0,464.21-208.22,464.21-464.16v-58.45h116.05v58c0,64.09,51.96,116.05,116.05,116.05s116.05-51.96,116.05-116.05v-57.26c.41,63.75,52.21,115.3,116.05,115.3s116.05-51.96,116.05-116.05v-232.07c0-64.09-51.96-116.05-116.05-116.05s-115.64,51.55-116.05,115.29v-57.26c0-64.09-51.96-116.05-116.05-116.05s-116.05,51.96-116.05,116.05v58h-116.05v-232.06c0-64.09-51.96-116.05-116.05-116.05s-116.05,51.96-116.05,116.05v232.06h-116.05v-58c0-64.09-51.96-116.05-116.05-116.05s-116.05,51.96-116.05,116.05v58c0-64.09-51.96-116.04-116.05-116.04s-116.05,51.96-116.05,116.05v115.28c0,.25,0,.5,0,.76s0,.5,0,.76v115.28c0,64.09,51.96,116.05,116.05,116.05s116.04-51.95,116.05-116.04v58c0,64.09,51.96,116.05,116.05,116.05s116.05-51.96,116.05-116.05v-58h116.05v58.45c0,127.96-104.12,232.06-232.1,232.06h-568.21c30.03-359.17,116.17-707.7,257.15-1039.48,55.08-129.62,118.6-256.31,189.75-378.62.6-.97,1.19-1.96,1.76-2.95.41-.71.81-1.42,1.2-2.13,38.81-66.45,79.87-131.59,123.07-195.21,122.47-180.38,263.2-350.14,418.29-504.56,154.92-154.26,325.49-294.55,506.97-416.97,182.97-123.42,378.7-229.79,581.73-316.14,332.53-141.43,681.69-229.35,1041.42-262.51v394.24s-174.07,0-174.07,0c-64.09,0-116.05,51.96-116.05,116.05v228.65h-348.15v-232.06c0-64.09-51.96-116.05-116.05-116.05h-348.15c-64.09,0-116.05,51.96-116.05,116.05v348.11c0,64.09,51.96,116.05,116.05,116.05h232.1v131.53c-34.69,20.07-58.03,57.57-58.03,100.53,0,64.09,51.96,116.05,116.05,116.05h58.03c64.09,0,116.05-51.96,116.05-116.05v-232.06h348.15v57.99h-174.08c-64.06,0-116.01,51.91-116.05,115.97l-.17,232.23-362.58.28c-51.54-200.15-233.58-348.48-449.61-348.48-64.09,0-116.05,51.96-116.05,116.05s51.96,116.05,116.05,116.05c85.91,0,161.07,46.91,201.2,116.46h-491.33c-64.09,0-116.05,51.96-116.05,116.05s51.96,116.05,116.05,116.05h638.37l580.01-.44c64.03-.05,115.91-51.94,115.96-115.97l.16-232.14h174.16c64.09,0,116.05-51.96,116.05-116.05v-174.04h58.03v190c-34.69,20.07-58.03,57.57-58.03,100.53,0,64.09,51.96,116.05,116.05,116.05h58.03c64.09,0,116.05-51.96,116.05-116.05v-406.58c0-64.09-51.96-116.05-116.05-116.05h-174.08v-112.6h174.08c30.78,0,60.29-12.23,82.06-33.99,21.76-21.76,33.99-51.28,33.99-82.06v-524.03c19.2-.51,38.41-.87,57.67-1.07,19.49.2,38.95.56,58.38,1.08v524.11c0,30.78,12.22,60.3,33.98,82.06,21.76,21.77,51.28,33.99,82.06,33.99h174.08v112.64h-174.08c-64.09,0-116.05,51.96-116.05,116.05v406.63c0,64.09,51.96,116.05,116.05,116.05h58.03c64.09,0,116.05-51.96,116.05-116.05,0-42.96-23.33-80.46-58.03-100.53v-190.05h58.03v174.08c0,64.09,51.96,116.05,116.05,116.05h174.16l.16,232.18c.05,64.03,51.94,115.92,115.96,115.97l580.1.45h638.28c64.09,0,116.05-51.96,116.05-116.05s-51.96-116.05-116.05-116.05h-491.34c40.13-69.57,115.3-116.5,201.21-116.5,64.09,0,116.05-51.96,116.05-116.05s-51.96-116.05-116.05-116.05c-216.03,0-398.07,148.35-449.61,348.52l-362.58-.28-.17-232.27c-.04-64.06-51.99-115.97-116.05-115.97h-174.08v-58.03h348.15v232.1c0,64.09,51.96,116.05,116.05,116.05h58.03c64.09,0,116.05-51.96,116.05-116.05,0-42.96-23.33-80.46-58.03-100.52v-131.58h232.1c64.09,0,116.05-51.96,116.05-116.05v-348.15c0-64.09-51.96-116.05-116.05-116.05h-348.15c-64.09,0-116.05,51.96-116.05,116.05v232.1h-348.15v-228.69c0-64.09-51.96-116.05-116.05-116.05h-174.08v-394.31c359.74,33.16,708.9,121.09,1041.42,262.54,203.03,86.36,398.76,192.74,581.73,316.18,181.48,122.44,352.05,262.74,506.97,417.02,155.08,154.45,295.81,324.23,418.29,504.63,43.2,63.63,84.26,128.78,123.07,195.24.39.72.79,1.43,1.2,2.14.57,1,1.16,1.97,1.76,2.94,71.16,122.33,134.66,249.03,189.75,378.67,140.99,331.82,227.12,680.42,257.16,1039.64h-568.22c-127.98,0-232.1-104.12-232.1-232.1v-58.47h116.05v58.03c0,64.09,51.96,116.05,116.05,116.05Z"/>
    <path class="cls-1" d="M7021.68,2797.57l-150.5-104.98c-40.97-28.58-95.63-27.73-135.7,2.1-40.06,29.83-56.54,81.95-40.92,129.4l57.41,174.28c3.91,11.84,9.69,22.99,17.14,32.99,27.77,37.3,68.4,61.55,114.4,68.28,8.56,1.26,17.1,1.87,25.59,1.87,37.18,0,73.23-11.88,103.59-34.48,37.3-27.77,61.55-68.4,68.28-114.41,6.74-46.01-4.84-91.89-32.62-129.18-7.45-10.01-16.46-18.74-26.69-25.88ZM7052.28,2948.43c-5.61,38.34-25.82,72.2-56.91,95.34-25.29,18.84-55.34,28.74-86.32,28.74-7.08,0-14.2-.51-21.33-1.56-38.34-5.61-72.2-25.83-95.34-56.9-5.59-7.51-9.93-15.86-12.85-24.74l-57.42-174.28c-11.72-35.58.64-74.68,30.69-97.05,30.05-22.37,71.05-23.01,101.77-1.57l150.5,104.98c7.67,5.35,14.43,11.9,20.02,19.41,23.14,31.08,32.79,69.31,27.18,107.65Z"/>
    <path class="cls-1" d="M1501.94,6701.89c-164.23-163.56-313.28-343.37-443-534.46-30.13-44.38-59.3-89.49-87.43-135.21l-109.28,63.09c29.49,47.98,60.05,95.28,91.66,141.84,134.26,197.76,288.52,383.87,458.52,553.17,1.18,1.17,2.36,2.35,3.54,3.52.25.24.49.48.74.73,168.66,167.43,354.16,319.77,551.41,452.84,49.32,33.27,99.49,65.42,150.41,96.38l62.83-108.92c-48.3-29.42-95.9-59.95-142.7-91.52-192.12-129.61-372.69-278.15-536.7-441.48ZM2108.27,7303.49c-41.87-25.91-83.2-52.62-123.95-80.12-195.68-132.01-379.68-283.11-547.01-449.2h0c-.36-.36-.72-.72-1.09-1.08-1.11-1.1-2.23-2.22-3.34-3.32-168.69-168-321.77-352.68-454.99-548.91-25.78-37.97-50.87-76.46-75.23-115.39l59.01-34.07c23.73,37.9,48.16,75.36,73.26,112.32,130.76,192.61,281,373.86,446.54,538.72,165.31,164.63,347.3,314.34,540.94,444.98,39.36,26.55,79.28,52.37,119.69,77.41l-33.83,58.66Z"/>
    <path class="cls-1" d="M1058.94,2123.36c129.73-191.06,278.78-370.86,443-534.39,164.01-163.32,344.58-311.83,536.7-441.43,46.8-31.57,94.39-62.08,142.69-91.5l-62.82-108.89c-50.92,30.96-101.1,63.11-150.42,96.37-197.23,133.04-382.69,285.33-551.35,452.73,0,0,0,0,0,0-.28.28-.56.56-.84.83-1.16,1.15-2.34,2.32-3.5,3.48-169.99,169.28-324.26,355.37-458.52,553.1-31.6,46.55-62.17,93.85-91.65,141.81l109.28,63.08c28.14-45.71,57.3-90.81,87.43-135.19ZM902.67,2185.32c24.36-38.93,49.44-77.39,75.22-115.36,133.22-196.2,286.3-380.86,454.99-548.84,1.12-1.12,2.25-2.24,3.38-3.36.34-.33.67-.66,1-1,167.34-166.08,351.37-317.19,547.06-449.19,40.75-27.49,82.09-54.2,123.96-80.11l33.83,58.63c-40.42,25.04-80.32,50.85-119.68,77.4-193.64,130.62-375.64,280.31-540.95,444.92-165.54,164.84-315.77,346.06-446.54,538.65-25.1,36.97-49.53,74.42-73.26,112.32l-59.01-34.06Z"/>
    <path class="cls-1" d="M7941.04,3349.79c-52.04-253.42-129.7-502.6-230.82-740.61-63.75-150.02-137.24-296.63-219.58-438.17-.41-.74-.82-1.47-1.24-2.2-.58-1.01-1.18-2.02-1.79-3-44.93-76.95-92.46-152.38-142.47-226.04-120.88-178.06-257.15-347.16-405.98-503.88,38.75-45.48,36.75-113.85-6.12-156.98-43.23-43.48-112.35-45.57-158.06-6.11-155.1-145.34-322.34-278.75-498.49-397.58-76.45-51.58-154.82-100.57-234.83-146.83-.84-.51-1.69-1.02-2.55-1.52-.84-.49-1.69-.96-2.54-1.42-139.53-80.4-283.97-152.45-431.79-215.32-238.44-101.43-488.1-179.98-742.03-233.49-260.15-54.82-527.98-83.99-796.07-86.72-1.71-.02-3.41,0-5.1.06-267.17,2.9-534.06,32.06-793.32,86.68-253.93,53.5-503.58,132.04-742.03,233.46-147.81,62.87-292.27,134.92-431.79,215.3-.85.46-1.7.94-2.54,1.43-.86.49-1.7.99-2.54,1.5-80.01,46.25-158.38,95.24-234.84,146.81-176.15,118.82-343.39,252.22-498.49,397.54-45.71-39.47-114.84-37.38-158.06,6.11-42.87,43.13-44.86,111.49-6.13,156.97-148.83,156.71-285.09,325.77-405.97,503.81-50,73.64-97.54,149.07-142.46,225.99-.62,1-1.22,2.01-1.81,3.04-.42.73-.84,1.47-1.25,2.22-82.33,141.51-155.83,288.1-219.57,438.09-101.13,237.98-178.79,487.13-230.83,740.52-53.36,259.85-80.44,527.52-80.48,795.54v.6c.05,268.05,27.12,535.75,80.48,795.63,52.04,253.42,129.7,502.6,230.83,740.61,63.74,150.02,137.24,296.63,219.58,438.16.41.74.82,1.47,1.24,2.21.58,1.02,1.18,2.02,1.79,3.01,44.93,76.94,92.46,152.37,142.46,226.03,120.88,178.06,257.15,347.16,405.98,503.88-38.74,45.48-36.75,113.85,6.13,156.98,43.23,43.49,112.35,45.57,158.06,6.11,155.1,145.34,322.34,278.75,498.49,397.58,76.45,51.58,154.82,100.57,234.84,146.83.84.51,1.69,1.02,2.55,1.52.84.49,1.69.96,2.54,1.42,139.52,80.39,283.97,152.45,431.78,215.32,238.44,101.43,488.1,179.98,742.03,233.49,260,54.79,527.71,83.96,795.65,86.72.52,0,1.05,0,1.57,0h.1c.49,0,1.02,0,1.52,0,267.94-2.75,535.64-31.93,795.65-86.72,253.93-53.5,503.59-132.06,742.03-233.49,147.81-62.88,292.26-134.93,431.79-215.32.85-.46,1.7-.94,2.54-1.42.86-.49,1.71-1,2.55-1.52,80.01-46.26,158.38-95.25,234.83-146.83,176.15-118.84,343.38-252.25,498.49-397.58,45.71,39.46,114.83,37.38,158.06-6.11,42.87-43.13,44.87-111.5,6.12-156.98,148.83-156.72,285.1-325.82,405.98-503.88,50.01-73.66,97.54-149.09,142.46-226.03.61-.99,1.21-1.99,1.79-3.01.42-.73.84-1.47,1.25-2.21,82.34-141.54,155.83-288.14,219.58-438.16,101.13-238.01,178.79-487.19,230.82-740.61,53.33-259.72,80.41-527.23,80.48-795.12v-1.19c-.07-267.89-27.16-535.39-80.48-795.12ZM7992.52,4145.06v1.04c-.08,265.94-26.96,531.47-79.89,789.28-51.65,251.54-128.73,498.86-229.11,735.1-63.33,149.04-136.34,294.67-218.16,435.27-.36.65-.71,1.3-1.09,1.94-.49.85-1,1.7-1.52,2.53-44.65,76.5-91.9,151.49-141.62,224.72-125.21,184.43-267.05,359.18-422.34,520.4l13.29,13.21c34.09,33.89,34.25,89,.36,123.09-33.89,34.09-89,34.25-123.09.36l-14.08-13.99c-159.61,151.68-332.5,290.58-515.03,413.72-76,51.28-153.92,99.98-233.46,145.96-.72.44-1.45.88-2.19,1.3-.73.42-1.45.83-2.19,1.22-138.62,79.89-282.14,151.5-429,213.96-236.71,100.69-484.56,178.68-736.66,231.8-258.17,54.4-523.98,83.37-790.05,86.1-.38,0-.75,0-1.15,0h-.09c-.4,0-.79,0-1.19,0-266.06-2.73-531.88-31.7-790.05-86.1-252.09-53.12-499.94-131.1-736.65-231.8-146.86-62.47-290.38-134.07-429-213.96-.73-.4-1.46-.8-2.19-1.22-.74-.43-1.47-.86-2.19-1.3-79.54-45.98-157.46-94.68-233.46-145.96-182.53-123.14-355.42-262.04-515.03-413.72l-14.08,13.99c-34.09,33.89-89.2,33.73-123.09-.36-33.89-34.09-33.73-89.2.37-123.09l13.29-13.21c-155.28-161.22-297.13-335.97-422.34-520.4-49.72-73.23-96.97-148.22-141.62-224.72-.51-.83-1.02-1.68-1.52-2.53-.37-.64-.73-1.29-1.09-1.94-81.82-140.6-154.83-286.23-218.16-435.27-100.37-236.24-177.46-483.56-229.11-735.1-52.97-257.97-79.85-523.7-79.89-789.8v-.6c.05-266.07,26.92-531.77,79.89-789.71,51.65-251.51,128.73-498.8,229.11-735.01,63.32-149.01,136.33-294.62,218.14-435.19.36-.66.72-1.31,1.1-1.96.5-.87,1.01-1.72,1.53-2.56,44.65-76.48,91.9-151.46,141.61-224.67,125.21-184.41,267.04-359.12,422.33-520.33l-13.28-13.2c-34.09-33.89-34.26-89-.37-123.09,33.88-34.09,89-34.26,123.09-.37l14.08,13.99c159.61-151.66,332.51-290.55,515.03-413.67,76-51.27,153.91-99.96,233.46-145.93.72-.45,1.46-.88,2.2-1.31.73-.42,1.47-.83,2.21-1.23,138.62-79.88,282.13-151.47,428.98-213.93,236.71-100.68,484.56-178.66,736.65-231.77,257.53-54.26,522.63-83.21,788.02-86.06,1.37-.05,2.73-.07,4.12-.06,266.17,2.71,532.1,31.68,790.38,86.1,252.1,53.12,499.94,131.1,736.66,231.8,146.86,62.47,290.37,134.07,428.98,213.95.74.4,1.47.81,2.2,1.23.75.43,1.48.87,2.2,1.31,79.54,45.98,157.45,94.67,233.45,145.95,182.53,123.14,355.42,262.05,515.03,413.72l14.08-13.99c34.09-33.89,89.2-33.72,123.09.37,33.89,34.09,33.73,89.2-.36,123.09l-13.29,13.21c155.28,161.22,297.13,335.97,422.34,520.4,49.72,73.23,96.97,148.22,141.62,224.72.52.83,1.03,1.68,1.52,2.53.37.65.73,1.29,1.09,1.94,81.82,140.6,154.83,286.23,218.16,435.27,100.37,236.24,177.46,483.56,229.11,735.09,52.94,257.81,79.81,523.35,79.89,789.28v.15Z"/>
    <path class="cls-1" d="M7072.06,6167.43c-129.73,191.08-278.77,370.9-443,534.46-164.01,163.33-344.58,311.87-536.69,441.48-46.8,31.57-94.4,62.1-142.7,91.52l62.83,108.92c50.92-30.96,101.1-63.11,150.42-96.38,197.24-133.07,382.74-285.41,551.4-452.84.25-.25.49-.49.74-.73,1.18-1.17,2.37-2.35,3.55-3.52,169.99-169.3,324.26-355.41,458.52-553.17,31.61-46.56,62.18-93.86,91.66-141.84l-109.28-63.09c-28.14,45.72-57.3,90.82-87.43,135.21ZM7228.34,6105.47c-24.36,38.93-49.45,77.42-75.23,115.39-133.22,196.23-286.3,380.91-454.99,548.91-1.11,1.1-2.23,2.22-3.34,3.32-.36.36-.73.72-1.09,1.08-167.33,166.09-351.33,317.19-547.01,449.2-40.75,27.49-82.08,54.21-123.95,80.12l-33.83-58.66c40.41-25.04,80.33-50.86,119.69-77.41,193.64-130.64,375.64-280.35,540.95-444.98,165.54-164.86,315.77-346.11,446.54-538.72,25.1-36.97,49.53-74.43,73.26-112.32l59.01,34.07Z"/>
    <path class="cls-1" d="M5476.55,7478.08c-218.6,92.99-447.48,165-680.28,214.06-180.03,37.93-364.1,62.48-549.24,73.31-1.55.13-3.1.22-4.67.27-58.48,3.35-117.07,5.33-175.67,5.93-.38,0-.75.01-1.13,0h-.26c-.32,0-.65,0-.97,0-58.6-.6-117.19-2.58-175.67-5.93-1.57-.05-3.12-.14-4.67-.27-185.14-10.83-369.21-35.37-549.24-73.31-232.8-49.05-461.69-121.07-680.28-214.06-109.72-46.67-217.43-98.87-322.35-156.17l-62.83,108.92c109.49,59.91,221.9,114.44,336.45,163.16,226.34,96.28,463.34,170.85,704.41,221.65,246.8,52,500.93,79.71,755.37,82.36,254.44-2.65,508.57-30.36,755.37-82.36,241.07-50.8,478.07-125.37,704.41-221.65,114.54-48.72,226.96-103.26,336.45-163.16l-62.83-108.92c-104.92,57.3-212.63,109.5-322.35,156.17ZM5513.92,7567.29c-224.62,95.54-459.81,169.55-699.03,219.95-244.83,51.59-496.96,79.09-749.39,81.73-252.42-2.65-504.56-30.15-749.39-81.73-239.23-50.41-474.42-124.41-699.03-219.95-104.58-44.49-207.39-93.86-307.79-147.78l33.83-58.65c97.86,52.48,198.06,100.56,299.97,143.91,220.33,93.72,451.02,166.31,685.66,215.75,181.31,38.2,366.66,62.93,553.1,73.85,1.82.15,3.66.26,5.51.32,58.78,3.36,117.67,5.34,176.57,5.95.45,0,.86,0,1.33,0,.08,0,.16,0,.24,0,.01,0,.03,0,.05,0,.49-.01,1,0,1.5-.01,58.9-.61,117.79-2.59,176.58-5.95,1.85-.06,3.69-.17,5.51-.32,186.44-10.93,371.79-35.65,553.1-73.85,234.64-49.44,465.33-122.03,685.66-215.75,101.92-43.35,202.11-91.44,299.97-143.91l33.83,58.65c-100.39,53.91-203.2,103.29-307.79,147.78Z"/>
    <path class="cls-1" d="M5022.92,3536.68h174.08v-174.07h-174.08v174.07ZM5051.93,3391.61h116.05v116.05h-116.05v-116.05Z"/>
    <path class="cls-1" d="M6560.6,2112.41h-72.71c-51.66-199.99-233.61-348.15-449.52-348.15-64.09,0-116.05,51.96-116.05,116.05s51.96,116.05,116.05,116.05c127.98,0,232.1,104.12,232.1,232.1,0,64.09,51.96,116.05,116.05,116.05h58.03v114.97h-58.03c-64.09,0-116.05,51.96-116.05,116.05,0,127.98-104.12,232.1-232.1,232.1h-1392.61v-112.33h58.03c64.09,0,116.05-51.96,116.05-116.05s-51.96-116.05-116.05-116.05h-58.03v-178.29c0-64.09-51.96-116.05-116.05-116.05h-288.99c-64.09,0-116.05,51.96-116.05,116.05v294.34c0,64.09,51.96,116.05,116.05,116.05h172.94v127.85c-34.69,20.06-58.03,57.57-58.03,100.53,0,46.29,27.1,86.25,66.3,104.88,17.12,42.74,58.92,72.93,107.77,72.93,44.48,0,83.11-25.02,102.59-61.75h187.54v119.78h-232.1c-64.09,0-116.05,51.96-116.05,116.05s51.96,116.05,116.05,116.05h232.1v232.1c0,64.09,51.96,116.05,116.05,116.05h348.15c64.09,0,116.05-51.96,116.05-116.05v-348.15c0-64.09-51.96-116.05-116.05-116.05h-232.1v-119.78h464.21v584.42c0,127.98-104.12,232.1-232.1,232.1h-580.26c-64.09,0-116.05,51.96-116.05,116.05s51.96,116.05,116.05,116.05h580.26c255.96,0,464.2-208.24,464.2-464.21v-584.42h290.13c215.91,0,397.86-148.16,449.52-348.15h72.71c64.09,0,116.05-51.96,116.05-116.05v-347.07c0-64.09-51.96-116.05-116.05-116.05ZM6647.64,2575.53c0,48.07-38.97,87.04-87.04,87.04h-95.78c-40.44,198.39-216.29,348.15-426.45,348.15h-319.14v613.44c0,239.96-195.23,435.19-435.19,435.19h-580.26c-48.07,0-87.04-38.97-87.04-87.04s38.97-87.04,87.04-87.04h580.26c143.98,0,261.12-117.14,261.12-261.12v-613.44h-522.23v177.8h261.12c48.07,0,87.04,38.97,87.04,87.04v348.15c0,48.07-38.97,87.04-87.04,87.04h-348.15c-48.07,0-87.04-38.97-87.04-87.04v-261.11h-261.12c-48.07,0-87.04-38.97-87.04-87.04s38.97-87.04,87.04-87.04h261.12v-177.8h-235.83c-10.83,35.74-44.03,61.75-83.31,61.75s-74.97-28.01-84.44-65.83c-35.16-11.18-60.63-44.1-60.63-82.96s24.22-70.14,58.02-82.08v-175.3h-201.96c-48.07,0-87.04-38.97-87.04-87.04v-294.34c0-48.07,38.97-87.04,87.04-87.04h288.99c48.07,0,87.04,38.97,87.04,87.04v207.3h87.04c48.07,0,87.04,38.97,87.04,87.04s-38.97,87.04-87.04,87.04h-87.04v170.35h1421.62c143.98,0,261.11-117.14,261.11-261.12,0-48.07,38.97-87.04,87.04-87.04h87.04v-172.99h-87.04c-48.07,0-87.04-38.97-87.04-87.04,0-143.98-117.14-261.11-261.11-261.11-48.07,0-87.04-38.97-87.04-87.04s38.97-87.04,87.04-87.04c210.16,0,386.01,149.76,426.45,348.15h95.78c48.07,0,87.04,38.97,87.04,87.04v347.07Z"/>
    <path class="cls-1" d="M5748.24,4666.84c0-255.96-208.24-464.2-464.2-464.2h-580.26c-64.09,0-116.05,51.96-116.05,116.05s51.96,116.05,116.05,116.05h580.26c127.98,0,232.1,104.12,232.1,232.1v584.43h-464.21v-119.78h232.1c64.09,0,116.05-51.96,116.05-116.05v-348.15c0-64.09-51.96-116.05-116.05-116.05h-348.15c-64.09,0-116.05,51.96-116.05,116.05v232.1h-232.1c-64.09,0-116.05,51.96-116.05,116.05s51.96,116.05,116.05,116.05h232.1v119.78h-187.54c-19.48-36.73-58.11-61.75-102.59-61.75-48.85,0-90.66,30.19-107.77,72.92-39.2,18.63-66.3,58.59-66.3,104.88,0,42.96,23.33,80.46,58.03,100.52v127.85h-172.94c-64.09,0-116.05,51.96-116.05,116.05v294.34c0,64.09,51.96,116.05,116.05,116.05h288.99c64.09,0,116.05-51.96,116.05-116.05v-178.29h58.03c64.09,0,116.05-51.96,116.05-116.05s-51.96-116.05-116.05-116.05h-58.03v-112.32h1392.61c127.98,0,232.1,104.12,232.1,232.1,0,64.09,51.96,116.05,116.05,116.05h58.03v114.96h-58.03c-64.09,0-116.05,51.96-116.05,116.05,0,127.99-104.12,232.1-232.1,232.1-64.09,0-116.05,51.96-116.05,116.05s51.96,116.05,116.05,116.05c215.91,0,397.86-148.16,449.52-348.15h72.71c64.09,0,116.05-51.96,116.05-116.05v-347.06c0-64.09-51.96-116.05-116.05-116.05h-72.71c-51.66-199.99-233.61-348.15-449.52-348.15h-290.13v-584.43ZM6038.37,5280.28c210.16,0,386.01,149.76,426.45,348.15h95.78c48.07,0,87.04,38.97,87.04,87.04v347.06c0,48.07-38.97,87.04-87.04,87.04h-95.78c-40.44,198.39-216.29,348.15-426.45,348.15-48.07,0-87.04-38.97-87.04-87.04s38.97-87.04,87.04-87.04c143.98,0,261.11-117.13,261.11-261.12,0-48.07,38.97-87.04,87.04-87.04h87.04v-172.99h-87.04c-48.07,0-87.04-38.97-87.04-87.04,0-143.98-117.14-261.12-261.11-261.12h-1421.62v170.35h87.04c48.07,0,87.04,38.97,87.04,87.04s-38.97,87.04-87.04,87.04h-87.04v207.3c0,48.07-38.97,87.04-87.04,87.04h-288.99c-48.07,0-87.04-38.97-87.04-87.04v-294.34c0-48.07,38.97-87.04,87.04-87.04h201.96v-175.31c-33.81-11.95-58.02-44.19-58.02-82.08s25.47-71.78,60.63-82.96c9.47-37.82,43.68-65.83,84.44-65.83s72.47,26.02,83.31,61.75h235.83v-177.8h-261.12c-48.07,0-87.04-38.97-87.04-87.04s38.97-87.04,87.04-87.04h261.12v-261.12c0-48.07,38.97-87.04,87.04-87.04h348.15c48.07,0,87.04,38.97,87.04,87.04v348.15c0,48.07-38.97,87.04-87.04,87.04h-261.12v177.8h522.23v-613.44c0-143.98-117.14-261.12-261.12-261.12h-580.26c-48.07,0-87.04-38.97-87.04-87.04s38.97-87.04,87.04-87.04h580.26c239.96,0,435.19,195.23,435.19,435.19v613.44h319.14Z"/>
    <path class="cls-1" d="M5811.43,3865.48c-33.38,72.8-80.69,136.95-140.63,190.66-26.35,23.61-39.38,56.55-38.57,89.36-.81,32.8,12.22,65.75,38.57,89.36,59.94,53.71,107.25,117.85,140.63,190.66,19.53,42.59,61.59,67.72,105.56,67.72,16.18,0,32.62-3.4,48.3-10.59,58.26-26.71,83.84-95.59,57.13-153.86-30.49-66.51-69.27-127.84-115.82-183.29,46.55-55.45,85.32-116.78,115.82-183.29,26.71-58.26,1.13-127.15-57.13-153.86-58.26-26.71-127.15-1.13-153.86,57.13ZM5953.19,3834.72c43.7,20.03,62.88,71.7,42.84,115.39-32.86,71.68-75.7,137.12-127.83,195.39,52.13,58.27,94.97,123.7,127.83,195.38,20.04,43.69.85,95.36-42.84,115.39-11.75,5.39-24.09,7.94-36.22,7.94-32.98,0-64.53-18.84-79.17-50.79-35.05-76.44-84.72-143.79-147.65-200.17-19.96-17.89-29.73-42.91-28.91-67.75-.83-24.85,8.94-49.87,28.91-67.76,62.92-56.38,112.6-123.73,147.65-200.17,20.03-43.7,71.69-62.88,115.39-42.85Z"/>
    <path class="cls-1" d="M4529.48,3797.57c29.7,0,59.4-11.33,82.06-33.99l57.8-57.8c45.32-45.32,45.32-118.8,0-164.12s-118.8-45.32-164.12,0l-57.8,57.8c-45.32,45.32-45.32,118.8,0,164.12,22.66,22.66,52.36,33.99,82.06,33.99ZM4467.94,3619.97l57.8-57.8c33.99-33.99,89.1-33.99,123.09,0,33.99,33.99,33.99,89.1,0,123.09l-57.8,57.8c-17,17-39.27,25.49-61.55,25.49s-44.55-8.5-61.54-25.49c-33.99-33.99-33.99-89.1,0-123.09Z"/>
    <path class="cls-1" d="M4447.42,4691.54l57.8,57.8c22.66,22.66,52.36,33.99,82.06,33.99s59.4-11.33,82.06-33.99c45.32-45.32,45.32-118.8,0-164.12l-57.8-57.81c-45.32-45.32-118.8-45.32-164.12,0-45.32,45.32-45.32,118.8,0,164.12ZM4467.94,4547.94c33.99-34,89.1-33.99,123.09,0l57.8,57.8c33.99,33.99,33.99,89.1,0,123.09-16.99,16.99-39.27,25.49-61.54,25.49s-44.55-8.5-61.55-25.5l-57.8-57.8c-33.99-33.99-33.99-89.1,0-123.09Z"/>
    <path class="cls-1" d="M4327.75,2492.22h114.92v-120.27h-114.92v120.27ZM4356.76,2400.97h56.89v62.24h-56.89v-62.24Z"/>
  </g>
  <g>
    <path class="cls-1" d="M4500.45,4146.17c0-.15.02-.3.02-.45,0-.07,0-.15,0-.22,0,.23-.02.45-.02.67Z"/>
    <path class="cls-1" d="M4065.28,3942.63c111.91,0,202.96,90.98,203.08,202.86,0-.07.01-.15.01-.22,0-23.88,7.23-46.06,19.59-64.5-28.18-96.44-117.25-167.15-222.68-167.15-48.07,0-87.04-38.97-87.04-87.04s38.97-87.04,87.04-87.04c194.28,0,357.06,137.15,396.82,319.68,23.41,21.15,38.22,51.6,38.35,85.6-.49-239.55-195.51-434.29-435.17-434.29-64.09,0-116.05,51.96-116.05,116.05s51.96,116.05,116.05,116.05Z"/>
    <path class="cls-1" d="M4471.45,4145.5c0-.07,0-.15,0-.22,0-.15-.02-.3-.02-.45,0,.23.02.45.02.67Z"/>
  </g>
  <g>
    <path class="cls-1" d="M4066.62,3710.55c-.15,0-.3-.02-.45-.02-.07,0-.15,0-.22,0,.23,0,.45.02.67.02Z"/>
    <path class="cls-1" d="M3863.08,4145.72c0-111.91,90.98-202.96,202.86-203.08-.07,0-.15-.01-.22-.01-23.88,0-46.06-7.23-64.5-19.59-96.44,28.18-167.15,117.25-167.15,222.68,0,48.07-38.97,87.04-87.04,87.04-48.07,0-87.04-38.97-87.04-87.04,0-194.28,137.15-357.06,319.68-396.82,21.15-23.41,51.6-38.22,85.6-38.35-239.55.49-434.29,195.51-434.29,435.17,0,64.09,51.96,116.05,116.05,116.05,64.09,0,116.05-51.96,116.05-116.05Z"/>
    <path class="cls-1" d="M4065.94,3739.55c-.07,0-.15,0-.22,0-.15,0-.3.02-.45.02.23,0,.45-.02.67-.02Z"/>
  </g>
  <g>
    <path class="cls-1" d="M3631,4144.38c0,.15-.02.3-.02.45,0,.07,0,.15,0,.22,0-.23.02-.45.02-.67Z"/>
    <path class="cls-1" d="M4066.17,4347.92c-111.91,0-202.96-90.98-203.08-202.86,0,.07-.01.15-.01.22,0,23.88-7.23,46.06-19.59,64.5,28.18,96.44,117.25,167.15,222.68,167.15,48.07,0,87.04,38.97,87.04,87.04s-38.97,87.04-87.04,87.04c-194.28,0-357.06-137.15-396.82-319.68-23.41-21.15-38.22-51.6-38.35-85.6.49,239.55,195.51,434.29,435.17,434.29,64.09,0,116.05-51.96,116.05-116.05,0-64.09-51.96-116.05-116.05-116.05Z"/>
    <path class="cls-1" d="M3659.99,4145.06c0,.07,0,.15,0,.22,0,.15.02.3.02.45,0-.23-.02-.45-.02-.67Z"/>
  </g>
  <g>
    <path class="cls-1" d="M4064.83,4580c.15,0,.3.02.45.02.07,0,.15,0,.22,0-.23,0-.45-.02-.67-.02Z"/>
    <path class="cls-1" d="M4268.37,4144.83c0,111.91-90.98,202.96-202.86,203.08.07,0,.15.01.22.01,23.88,0,46.06,7.23,64.5,19.59,96.44-28.18,167.15-117.25,167.15-222.68,0-48.07,38.97-87.04,87.04-87.04,48.07,0,87.04,38.97,87.04,87.04,0,194.28-137.15,357.06-319.68,396.82-21.15,23.41-51.6,38.22-85.6,38.35,239.55-.49,434.29-195.51,434.29-435.17,0-64.09-51.96-116.05-116.05-116.05-64.09,0-116.05,51.96-116.05,116.05Z"/>
    <path class="cls-1" d="M4065.5,4551c.07,0,.15,0,.22,0,.15,0,.3-.02.45-.02-.23,0-.45.02-.67.02Z"/>
  </g>
</svg>