<?xml version="1.0" encoding="UTF-8"?>
<svg id="Ebene_1" data-name="Ebene 1" xmlns="http://www.w3.org/2000/svg" viewBox="0 0 2000 2000">
  <polygon points="836.27 908.77 836.27 1545.55 625.56 1545.55 625.56 514.35 625.56 453.7 625.56 380.91 552.77 380.91 552.77 453.7 552.77 1545.55 552.77 1618.34 625.56 1618.34 836.27 1618.34 909.06 1618.34 909.06 1545.55 909.06 1191.98 1120.31 1580.33 1140.99 1618.34 1184.25 1618.34 1184.25 1545.55 837.86 908.77 836.27 908.77"/>
  <polygon points="1353.45 380.91 1141.15 380.91 1068.36 380.91 1068.36 453.7 1068.36 774.81 876.37 419.13 855.74 380.91 812.32 380.91 812.32 453.7 1139.56 1059.95 1141.15 1059.95 1141.15 453.7 1353.45 453.7 1353.45 1384.65 1353.45 1545.55 1353.45 1618.34 1426.24 1618.34 1426.24 1545.55 1426.24 453.7 1426.24 380.91 1353.45 380.91"/>
</svg>