<?xml version="1.0" encoding="UTF-8"?>
<svg id="Ebene_1" data-name="Ebene 1" xmlns="http://www.w3.org/2000/svg" viewBox="0 0 382.28 381.33">
  <defs>
    <style>
      .cls-1 {
        fill: #2563eb;
      }
    </style>
  </defs>
  <path class="cls-1" d="M214.73,0l8.79,46.09c16.53,4.21,31.95,11.24,47,19.07l38.66-25.03,32.46,32.44-.24,2.09-24.57,37.57c8.33,14.45,14.92,29.75,18.83,46.01l45.89,8.8.73,45.67c-.34,2.28-3.35,2.8-5.35,3.34-5.83,1.57-40.42,5.21-41.92,7.45-2.35,16.88-11.2,31.67-18.23,46.86l25.28,39.41-32.89,32.08-2.68-.45-34.51-23.94-2.85-.77c-14.21,8.05-29.25,15.24-45.45,18.18l-8.89,46.4-47.62.07-9.21-46.22c-16.67-3.45-31.78-11.34-46.95-18.61l-38.58,25.23-32.58-32.31.02-2.31c2.65-5.05,26-34.56,25.58-37.37-.28-1.84-6.63-11.47-7.94-14.25-4.78-10.2-8.5-20.97-11.09-31.94L.87,214.6l-.87-46.11c.37-2.4,3.45-2.73,5.49-3.2,5.47-1.26,39.31-4.93,40.93-6.86,3.26-16.96,11.26-32.23,18.97-47.45l-25.67-38.04c1.05-2.98,3.88-3.98,5.71-5.9,8.94-9.37,17.47-19.71,27.75-27.5l34.77,24.17c1.46.81,2.39,1.67,4.23,1.41,2.93-.43,11.72-6.47,15.49-8.26,9.75-4.62,20.48-7.92,30.95-10.52L167.12.6l47.61-.6ZM75.25,59.22c-1.3-.19-2.6.7-3.56,1.47-2.1,1.7-7.92,7.61-9.81,9.76-1.41,1.61-3.51,3.88-2.24,6l22.38,32.13c.79,1.12,1.11,2.27.76,3.63-.54,2.14-6.39,9.89-7.89,12.7-4.79,9.01-10.4,20.7-12.89,30.54-1.94,7.64.36,14.97-8.12,17.15-12.19,3.12-26.52,3.82-38.91,6.9l-.79,22.02c.59,2.49,42.55,6.93,44.63,10.03,1.18,1.76,2.28,11.04,3.19,14.18,4.49,15.47,11.54,31.14,21.52,43.82l-24.31,37.18c-.22,1,.32,1.59.77,2.35s12.25,12.58,13.05,13.04c.51.3.9.8,1.59.72l34.92-23.56c.87-.66,1.54-.89,2.63-.58,2.5.7,11.77,7.46,15.25,9.29,7.52,3.97,16.86,8.14,25.01,10.53,3.75,1.1,15.79,2.79,17.82,4.29,4,2.97,5.11,24.35,6.11,30.21.8,4.69,2.05,9.32,3.01,13.97,6.38-.69,15.66,1.2,21.65.08.91-.17,1.61-.26,1.84-1.32,1.77-11.63,4.16-23.15,6.37-34.69.6-3.16-.96-6.82,3.01-8.83,3.16-1.6,11.97-2.15,16.37-3.37,7.43-2.06,17.81-6.46,24.67-10.08,2.93-1.55,15.25-10.28,16.5-10.41,4.7-.46,31.1,21.46,37.22,24.39,3.01-1.96,15.66-12.89,15.89-15.42l-.43-1.59-23-33.15c-.63-.87-1.01-1.74-.77-2.85.34-1.58,9.35-14.84,11.06-18.22,3.98-7.88,7.26-16.53,9.74-25.01.97-3.33,2.4-13.51,3.62-15.34,2.81-4.23,37.73-5.37,43.99-9.32,1.57-1.53,1.38-21.39.03-22.57l-40.29-7.49c-1.36-.32-3.52-.79-4.19-2.13-1.23-2.48-2.19-11.8-3.33-15.63-2.87-9.63-7.71-21.21-12.73-29.92-1.68-2.92-7.84-9.95-8.03-12.55-.3-4.19,22.1-30.21,24.38-36.45.35-.99-.2-1.48-.64-2.22-.47-.79-12.25-12.58-13.05-13.05-1.54-.9-2.5-1.11-4.16-.13l-32.64,22.66c-3.68,1.52-11.23-5.09-14.96-7.1-14.94-8.07-29.79-13.61-46.6-16.58l-8.29-43.04-22.83-.82c-3.93,6.46-5.05,41.04-9.2,43.85-1.66,1.12-8.93,1.81-11.65,2.57-17.21,4.82-32.22,12-47.23,21.56M187.84,68.79c117.31-2.24,170.51,145.27,78.25,218.07-61.19,48.27-151.83,25.95-185.04-43.84-37.54-78.89,19.53-172.56,106.79-174.23ZM179.13,79.1c-83.54,7.4-127.86,105.65-80.73,174.99,52.13,76.68,171.22,59.5,199.57-28.54,25.23-78.37-37.74-153.64-118.84-146.45ZM121.22,249.45c27.52,24.84,67.15,29.58,101.72,17.95,31.03-10.44,54.13-37.67,59.02-70.09-11.26,10.29-26.08,18.06-39.99,24.37-32.85,14.89-71.75,24.63-108.09,22.21-7.17-.48-15.51-1.86-21.72-5.52-1.05,1.08,7.87,10.01,9.05,11.08ZM239.85,117.7c3.02-1.99,9.36-2.98,8.98-7.64s-9.91.14-12.13,1.33c-10.95,5.86-23.56,21.88-28.32,33.28-1.97,4.72-4.76,10.53,2.14,12.33,15.8-3.81,31.54-3.86,47.29.1,4,1.01,9.79,5.46,12.2.96,1.23-4.95-12.81-8.78-16.65-9.93-9.97-3.01-20.98-5.18-31.42-5.31,3.67-9.46,9.27-19.43,17.91-25.12ZM113.36,189.44c7.03-5.75,16.22-11.44,24.65-14.84,3.24-1.31,16.84-4.66,18.04-5.65,6.38-5.27-8.34-14.92-12.05-17.3-7.75-4.97-19.91-10.35-29.1-11.18-2.86-.26-13.77-1-14.49,2.12-1.14,4.94,4.93,3.08,8.08,3.49,11.05,1.46,23.36,7.66,30.51,16.07-9,4.27-17.12,9.95-24.5,16.59-3.05,2.74-15.16,13.45-12.52,17.67,4.54,2.34,8.04-4.25,11.37-6.97Z"/>
</svg>