<?xml version="1.0" encoding="UTF-8"?>
<svg id="Ebene_1" xmlns="http://www.w3.org/2000/svg" version="1.1" viewBox="0 0 379.8 102.2">
  <!-- Generator: Adobe Illustrator 29.5.0, SVG Export Plug-In . SVG Version: 2.1.0 Build 137)  -->
  <defs>
    <style>
      .st0 {
        fill: #e50914;
      }

      .st1 {
        isolation: isolate;
      }
    </style>
  </defs>
  <g class="st1">
    <g class="st1">
      <path class="st0" d="M18,69.1v-3.3c4.6-.5,9.3-1,13.9-1.5,0,1.1,0,2.1,0,3.2,0,4.4,2.3,7.3,7.6,6.7,5.3-.6,7.7-3.6,7.7-8.2,0-4.6-2.5-7.2-12.6-11.1-12.7-4.9-16.3-11.1-16.4-21.5,0-10.5,7.6-20.3,21.9-20.2,14.3,0,21.4,7.5,21.4,18.8,0,.6,0,1.3,0,1.9-4.7.2-9.3.3-14,.5,0-.6,0-1.3,0-1.9,0-4.4-2.1-7.5-7.3-7.4-5.2.1-7.2,3.1-7.2,7.4,0,4.4,2.9,7.1,12.8,11.1,13,5.1,16.2,10.9,16.1,20.7,0,9.7-7.8,19.7-22.3,21.8-14.4,2.1-21.7-4.8-21.7-17.1Z"/>
      <path class="st0" d="M71.3,14.2c13.4,0,26.9,0,40.3,0,0,3.7,0,7.4,0,11.1-8.5.1-17,.2-25.5.4,0,5.1,0,10.1,0,15.2,6.8-.3,13.5-.5,20.3-.7,0,3.7,0,7.5,0,11.2-6.8.3-13.5.6-20.3,1,0,5.4,0,10.8,0,16.2,8.5-.6,17-1.2,25.5-1.7,0,3.7,0,7.4,0,11.1-13.5.9-26.9,2.1-40.3,3.5,0-22.4.1-44.8.2-67.2Z"/>
      <path class="st0" d="M120.7,14.1c6.1,0,12.2,0,18.3,0,4.9,12,9.8,24,14.8,35.8,0-11.9,0-23.9,0-35.8,4.4,0,8.8,0,13.2,0,0,20.5,0,41.1,0,61.6-5,0-10,.2-14.9.3-6.1-14.5-12.1-29.1-18.2-43.8,0,14.8,0,29.7,0,44.5-4.4.2-8.8.4-13.2.7,0-21.1.1-42.2.2-63.3,0,0,0,0,0,0Z"/>
      <path class="st0" d="M178.7,14.1c13,0,26.1,0,39.1,0,0,3.6,0,7.2,0,10.8-8.1,0-16.2,0-24.3,0,0,4.9,0,9.8,0,14.7,6.3,0,12.7,0,19,.2,0,3.6,0,7.2,0,10.8-6.3-.1-12.7-.2-19-.2,0,8.5,0,16.9,0,25.4-4.9,0-9.9,0-14.8,0,0-20.5,0-41,0-61.5h0Z"/>
      <path class="st0" d="M226.1,14.1c4.9,0,9.9,0,14.8,0,0,17.4,0,34.7.1,52.1,8.1.4,16.2.8,24.3,1.3,0,3.8,0,7.5,0,11.3-13-1-26.1-1.8-39.2-2.3,0-20.8,0-41.6-.1-62.4Z"/>
      <path class="st0" d="M273.5,14.2c4.9,0,9.9,0,14.8,0,0,22.2.1,44.5.2,66.7-4.9-.5-9.9-.9-14.8-1.4,0-21.8-.1-43.6-.2-65.3Z"/>
      <path class="st0" d="M313.4,48.1c-5.5-11.6-11-22.9-16.5-33.9,5.3,0,10.7,0,16,0,3.2,7.3,6.4,14.7,9.5,22.2,3.3-7.3,6.5-14.6,9.8-22.2,4.8,0,9.5,0,14.3,0-5.5,12-10.9,23.6-16.4,34.9,5.7,12.6,11.4,25.7,17.1,39.2-5.3-.8-10.5-1.6-15.8-2.4-3.5-8.7-6.9-17.1-10.4-25.4-3.5,7.7-7,15.3-10.5,22.7-4.8-.6-9.5-1.1-14.3-1.6,5.7-10.9,11.3-22.1,17-33.6,0,0,.1,0,.2,0Z"/>
    </g>
  </g>
</svg>