<?xml version="1.0" encoding="UTF-8"?>
<svg id="Ebene_2" data-name="Ebene 2" xmlns="http://www.w3.org/2000/svg" viewBox="0 0 620.36 694.29">
  <g id="Ebene_1-2" data-name="Ebene 1">
    <g id="tONZV0">
      <path fill="#FFD700" d="M117.8,501.09c-.98,13.98,9.07,29.23,17.95,39.48,59.96,69.26,160.75,102.13,249.78,76.9,98.22-27.84,148.55-139.63,56.86-209.71-44.93-34.34-104.13-46.28-147.67-81.11-38.9-31.12-31.58-77.45,17.67-90.01,37.02-9.45,87.83-1.9,122.44,13.84,3.67,1.67,23.51,13.79,25.61,11.84-.97-3.99-4.39-8.27-7.02-11.45-28.3-34.29-68.64-48.27-96.9-80.92-68.58-79.25,13.2-196.24,111.7-164.65,60.6,19.44,88.08,90.91,58.68,147.16-14.08,26.94-47.31,41.44-29.89,76.81,6.72,13.65,44.8,38.95,58.36,51.53,128.85,119.61,47.96,298.49-85.26,372.32-124.47,68.98-272.01,49.66-376.32-45.61-98.68-90.13-136.98-229.6-27.97-329.71,15.21-13.97,52.62-38.5,59.44-56.45,9.38-24.67-10.89-37.63-23.29-54.6C34.98,75.12,138.22-40.53,235.7,15.04c53.84,30.69,70.91,106.69,27.98,153.9-28.26,31.07-53.01,43.29-71.13,85.72-37.06,86.78,18.96,130.57,88.07,166.03,31.79,16.31,96.09,37.59,110.09,71.73,10.23,24.94-1.4,52.13-23.24,66.03-57.27,36.44-169.72-2.65-221.61-37.97-6.68-4.55-17.8-15.42-23.73-18.23-1.45-.68-2.54-1.52-4.32-1.16Z"/>
    </g>
  </g>
</svg> 